<?xml version="1.0" encoding="UTF-8" standalone="no"?>
<svg
   xmlns:dc="http://purl.org/dc/elements/1.1/"
   xmlns:cc="http://creativecommons.org/ns#"
   xmlns:rdf="http://www.w3.org/1999/02/22-rdf-syntax-ns#"
   xmlns:svg="http://www.w3.org/2000/svg"
   xmlns="http://www.w3.org/2000/svg"
   xmlns:sodipodi="http://sodipodi.sourceforge.net/DTD/sodipodi-0.dtd"
   xmlns:inkscape="http://www.inkscape.org/namespaces/inkscape"
   class="svg-logo"
   version="1.1"
   id="Layer_1"
   x="0px"
   y="0px"
   viewBox="0 0 599.99994 298.58206"
   xml:space="preserve"
   sodipodi:docname="animated-logo-1.svg"
   width="599.99994"
   height="298.58206"
   inkscape:version="0.92.3 (2405546, 2018-03-11)"><metadata
   id="metadata107"><rdf:RDF><cc:Work
       rdf:about=""><dc:format>image/svg+xml</dc:format><dc:type
         rdf:resource="http://purl.org/dc/dcmitype/StillImage" /></cc:Work></rdf:RDF></metadata><defs
   id="defs105" /><sodipodi:namedview
   pagecolor="#ffffff"
   bordercolor="#666666"
   borderopacity="1"
   objecttolerance="10"
   gridtolerance="10"
   guidetolerance="10"
   inkscape:pageopacity="0"
   inkscape:pageshadow="2"
   inkscape:window-width="1319"
   inkscape:window-height="713"
   id="namedview103"
   showgrid="false"
   inkscape:zoom="0.57000006"
   inkscape:cx="79.282717"
   inkscape:cy="62.761221"
   inkscape:window-x="47"
   inkscape:window-y="27"
   inkscape:window-maximized="1"
   inkscape:current-layer="g939" />
        <path
   class="left st10"
   d="M 183.51757,0.32251865 C 103.30077,81.208009 103.84117,211.57748 184.73587,291.80343"
   id="path4"
   inkscape:connector-curvature="0"
   style="fill:none;stroke-miterlimit:10;stroke:#cdcdcd;stroke-opacity:1" />
        <line
   class="left st10"
   x1="124.12216"
   y1="151.10117"
   x2="55.877842"
   y2="150.18509"
   id="line10"
   style="fill:none;stroke-miterlimit:10;stroke:#cdcdcd;stroke-opacity:1" />
        <circle
   class="left"
   id="circle12"
   cx="28.396946"
   cy="149.72708"
   r="27.938931"
   style="fill:#67676f;fill-opacity:0.94117647;stroke-miterlimit:10" />
        <path
   class="right st10"
   d="m 415.30077,4.9026686 c 80.2168,80.8855004 79.6763,211.2549614 -1.2184,291.4809214"
   id="path6"
   inkscape:connector-curvature="0"
   style="fill:none;stroke-miterlimit:10;stroke:#cdcdcd;stroke-opacity:1" />
        <line
   class="right st10"
   x1="543.66406"
   y1="151.10117"
   x2="475.41977"
   y2="150.18509"
   id="line8"
   style="fill:none;stroke-miterlimit:10;stroke:#cdcdcd;stroke-opacity:1" />
        <circle
   class="right"
   id="circle14"
   cx="571.60303"
   cy="150.64316"
   r="27.938931"
   style="fill:#ababab;fill-opacity:1;stroke-miterlimit:10" />

        <!-- inner ball -->

        
        
        
        
        
        
        
        
        
        
        
        
        
        
        
        
        
        
        
        
        
        
        
        
        
        
        
        
        
        
        
        
        
        
        
        
        
        
        
        
        
        
        
        
        
        
        
        
        
        
        
        
        
        
        
        
        
        
        
        
        
        
        
        
        
        
        
        
        
        
        
        
        
        
        
        
        
        
        
        
        
        
        
        <g
   id="g939"
   style="fill:#9a9a9a;fill-opacity:1;stroke:#efefef;stroke-opacity:1"><circle
     id="circle23"
     r="2.7480917"
     cy="53.54388"
     cx="267.48093"
     class="small-circle"
     style="fill:#9a9a9a;fill-opacity:1;stroke:#efefef;stroke-opacity:1" /><circle
     id="circle25"
     r="2.2900763"
     cy="51.253811"
     cx="334.80917"
     class="small-circle"
     style="fill:#9a9a9a;fill-opacity:1;stroke:#efefef;stroke-opacity:1" /><circle
     id="circle27"
     r="1.3740458"
     cy="42.093502"
     cx="300.91599"
     class="small-circle"
     style="fill:#9a9a9a;fill-opacity:1;stroke:#efefef;stroke-opacity:1" /><circle
     id="circle29"
     r="1.8320611"
     cy="66.368317"
     cx="367.32822"
     class="small-circle"
     style="fill:#9a9a9a;fill-opacity:1;stroke:#efefef;stroke-opacity:1" /><circle
     id="circle31"
     r="1.3740458"
     cy="95.223297"
     cx="383.35873"
     class="small-circle"
     style="fill:#9a9a9a;fill-opacity:1;stroke:#efefef;stroke-opacity:1" /><circle
     id="circle33"
     r="1.3740458"
     cy="123.62024"
     cx="406.25949"
     class="small-circle"
     style="fill:#9a9a9a;fill-opacity:1;stroke:#efefef;stroke-opacity:1" /><circle
     id="circle35"
     r="3.2061069"
     cy="158.42941"
     cx="404.42746"
     class="small-circle"
     style="fill:#9a9a9a;fill-opacity:1;stroke:#efefef;stroke-opacity:1" /><circle
     id="circle37"
     r="5.038168"
     cy="155.6813"
     cx="364.12216"
     class="small-circle"
     style="fill:#9a9a9a;fill-opacity:1;stroke:#efefef;stroke-opacity:1" /><circle
     id="circle39"
     r="5.9541984"
     cy="149.29103"
     cx="299.99997"
     class="small-circle"
     style="fill:#9a9a9a;fill-opacity:1;stroke:#efefef;stroke-opacity:1" /><circle
     id="circle41"
     r="2.7480917"
     cy="87.437012"
     cx="319.69467"
     class="small-circle"
     style="fill:#9a9a9a;fill-opacity:1;stroke:#efefef;stroke-opacity:1" /><circle
     id="circle43"
     r="3.6641221"
     cy="109.42175"
     cx="242.74802"
     class="small-circle"
     style="fill:#9a9a9a;fill-opacity:1;stroke:#efefef;stroke-opacity:1" /><circle
     id="circle45"
     r="1.8320611"
     cy="61.788174"
     cx="236.33591"
     class="small-circle"
     style="fill:#9a9a9a;fill-opacity:1;stroke:#efefef;stroke-opacity:1" /><circle
     id="circle47"
     r="2.2900763"
     cy="86.979004"
     cx="212.061"
     class="small-circle"
     style="fill:#9a9a9a;fill-opacity:1;stroke:#efefef;stroke-opacity:1" /><circle
     id="circle49"
     r="1.3740458"
     cy="116.29199"
     cx="191.90842"
     class="small-circle"
     style="fill:#9a9a9a;fill-opacity:1;stroke:#efefef;stroke-opacity:1" /><circle
     id="circle51"
     r="1.3740458"
     cy="149.26907"
     cx="194.65646"
     class="small-circle"
     style="fill:#9a9a9a;fill-opacity:1;stroke:#efefef;stroke-opacity:1" /><circle
     style="fill:#9a9a9a;fill-opacity:1;stroke:#efefef;stroke-opacity:1"
     id="circle53"
     r="1.8320611"
     cy="182.70419"
     cx="185.95419"
     class="small-circle" /><circle
     id="circle55"
     r="2.2900763"
     cy="189.57443"
     cx="239.54196"
     class="small-circle"
     style="fill:#9a9a9a;fill-opacity:1;stroke:#efefef;stroke-opacity:1" /><circle
     id="circle57"
     r="3.6641221"
     cy="212.9332"
     cx="208.85495"
     class="small-circle"
     style="fill:#9a9a9a;fill-opacity:1;stroke:#efefef;stroke-opacity:1" /><circle
     id="circle59"
     r="1.8320611"
     cy="241.33017"
     cx="229.00766"
     class="small-circle"
     style="fill:#9a9a9a;fill-opacity:1;stroke:#efefef;stroke-opacity:1" /><circle
     id="circle61"
     r="2.2900763"
     cy="249.11642"
     cx="260.61069"
     class="small-circle"
     style="fill:#9a9a9a;fill-opacity:1;stroke:#efefef;stroke-opacity:1" /><circle
     id="circle63"
     r="5.4961834"
     cy="256.90268"
     cx="327.02292"
     class="small-circle"
     style="fill:#9a9a9a;fill-opacity:1;stroke:#efefef;stroke-opacity:1" /><circle
     id="circle65"
     r="3.6641221"
     cy="217.51334"
     cx="314.19846"
     class="small-circle"
     style="fill:#9a9a9a;fill-opacity:1;stroke:#efefef;stroke-opacity:1" /><circle
     id="circle67"
     r="2.2900763"
     cy="247.28433"
     cx="360.45798"
     class="small-circle"
     style="fill:#9a9a9a;fill-opacity:1;stroke:#efefef;stroke-opacity:1" /><circle
     id="circle69"
     r="1.8320611"
     cy="217.51334"
     cx="378.32053"
     class="small-circle"
     style="fill:#9a9a9a;fill-opacity:1;stroke:#efefef;stroke-opacity:1" /><circle
     id="circle71"
     r="1.8320611"
     cy="195.52866"
     cx="402.13742"
     class="small-circle"
     style="fill:#9a9a9a;fill-opacity:1;stroke:#efefef;stroke-opacity:1" /></g>
        <g
   id="text916"
   aria-label="CREATIVES"
   transform="matrix(0.94633799,0,0,0.94633799,18.742114,-3.3997866)"
   style="font-style:normal;font-variant:normal;font-weight:normal;font-stretch:normal;font-size:40px;line-height:1.25;font-family:'TeX Gyre Bonum Math';-inkscape-font-specification:'TeX Gyre Bonum Math';letter-spacing:30.07382202px;word-spacing:0px;fill:#dedede;fill-opacity:1;stroke:none">
          <path
   d="m 151.37059,145.53754 -0.8789,1.30795 c 3.91612,3.11773 4.18918,6.80081 4.06773,8.2678 -0.26401,3.18909 -3.14753,7.76679 -10.32298,7.17275 -5.64469,-0.4673 -9.56366,-3.93847 -9.21516,-8.14807 0.40658,-4.9112 3.91902,-6.22589 7.53506,-7.62833 l 0.0845,-1.02051 -7.81244,0.89449 -0.0871,1.0524 1.28397,0.78059 c -1.59086,1.76276 -2.35784,3.65794 -2.58489,6.40056 -0.35114,4.24149 3.02208,10.81421 10.51644,11.43464 6.37818,0.52803 11.56048,-3.89147 12.09379,-10.33343 0.34058,-4.11393 -1.2079,-7.51729 -4.67999,-10.18084 z"
   style="font-size:32px;letter-spacing:30.07382202px;fill:#dedede;fill-opacity:1"
   id="path908"
   inkscape:connector-curvature="0" />
          <path
   d="m 175.46579,93.992992 -0.88835,-0.44147 c -0.95571,1.276001 -1.79872,1.821871 -3.38645,2.140585 l -9.09828,1.410356 c 1.662,-5.070106 -1.03346,-7.124295 -2.46628,-7.836343 -3.06625,-1.523782 -6.16788,0.04367 -8.21858,4.170209 l -5.79607,11.663201 0.88836,0.44147 0.44199,-0.67369 c 0.94112,-1.39046 1.72804,-1.46393 4.07788,-0.29617 l 11.262,5.59669 c 2.34984,1.16776 2.76649,1.83935 2.22656,3.42918 l -0.27006,0.75914 0.88835,0.44146 4.14412,-8.33904 -0.88835,-0.44147 -0.59864,0.98891 c -0.86958,1.39028 -1.75671,1.44969 -4.07788,0.29617 l -5.0722,-2.52065 2.05069,-4.12653 12.40296,-1.876372 z m -17.26276,-1.575006 c 1.34686,0.669325 3.76999,2.552448 1.59113,6.936894 l -2.39248,4.81429 -6.21847,-3.09028 c -1.00297,-0.49844 -1.42015,-1.384694 0.41693,-5.081383 1.82284,-3.668033 4.02381,-4.861206 6.60289,-3.579521 z"
   style="font-size:32px;letter-spacing:30.07382202px;fill:#dedede;fill-opacity:1"
   id="path910"
   inkscape:connector-curvature="0" />
          <path
   d="m 205.32312,50.799433 -1.03605,0.333723 c 0.42132,5.66207 -0.57878,8.467 -4.11324,11.667227 -2.25351,2.040413 -3.2604,1.786546 -4.57056,0.339555 l -4.53186,-5.005168 1.75536,-1.589375 c 1.87398,-1.696764 3.43223,-1.596776 5.68837,0.418234 l 0.80652,-0.730253 -6.42193,-7.092631 -0.80652,0.730253 c 1.90162,2.767694 1.87375,3.785798 -0.14255,5.611431 l -1.80281,1.63233 -3.65126,-4.032599 c -1.3746,-1.518155 -1.16593,-2.527286 0.92153,-4.417353 3.22608,-2.921013 5.84506,-3.651939 10.43294,-2.971146 l 0.47987,-0.995673 -5.50281,-2.787827 -13.54479,12.263958 0.66582,0.735356 0.65746,-0.465787 c 1.38385,-0.95081 2.14326,-0.73188 3.90446,1.213257 l 8.44087,9.322421 c 1.7612,1.945136 1.90386,2.722495 0.82071,4.005401 l -0.5286,0.608114 0.66582,0.735357 13.82945,-12.521694 z"
   style="font-size:32px;letter-spacing:30.07382202px;fill:#dedede;fill-opacity:1"
   id="path912"
   inkscape:connector-curvature="0" />
          <path
   d="m 257.35848,31.64896 -0.35462,-0.926452 c -2.05695,0.444687 -2.54141,0.253215 -4.68112,-2.114333 l -12.46711,-13.593567 -2.77936,1.063838 -0.0957,15.14706 c -0.0462,5.876851 -0.26131,6.747245 -2.11494,7.902178 l -0.30586,0.185601 0.35461,0.926453 8.00933,-3.065684 -0.35461,-0.926452 c -1.13308,0.26238 -1.68689,0.337303 -2.0957,0.253934 -1.35042,-0.305445 -1.5689,-1.59238 -1.55201,-3.517632 l -0.0274,-2.93621 7.71048,-2.951292 2.96992,3.283281 c 1.36671,1.601244 1.37485,2.249143 -0.96838,3.557217 l 0.35461,0.926452 z m -11.78382,-5.631733 -6.72426,2.573801 -0.11443,-10.235409 z"
   style="font-size:32px;letter-spacing:30.07382202px;fill:#dedede;fill-opacity:1"
   id="path914"
   inkscape:connector-curvature="0" />
          <path
   d="m 306.87104,10.37663 -1.82921,-5.6200265 -18.55959,0.1227353 -1.78672,5.6439392 1.05852,0.377008 c 1.86595,-3.3404124 4.06416,-4.8269815 7.0081,-4.8464498 1.05598,-0.00698 1.41009,0.310682 1.41643,1.270661 l 0.0971,14.6876788 c 0.0172,2.591943 -0.45755,3.3951 -2.05667,3.533678 l -1.24734,0.104251 0.007,0.991978 9.85578,-0.06518 -0.007,-0.991978 -1.2486,-0.08775 c -1.60082,-0.117417 -2.08609,-0.914225 -2.10324,-3.506168 L 297.3793,7.4313252 c -0.007,-1.1199755 0.24668,-1.4096621 1.30266,-1.4166454 2.81594,-0.018622 5.25889,1.6292592 7.07159,4.7533402 z"
   style="font-size:32px;letter-spacing:30.07382202px;fill:#dedede;fill-opacity:1"
   id="path916"
   inkscape:connector-curvature="0" />
          <path
   d="m 348.32938,36.178118 0.33254,-0.934602 -0.57079,-0.304988 c -1.53147,-0.850602 -1.67001,-1.511273 -0.77966,-4.013593 L 351.52724,19.0766 c 0.89036,-2.502321 1.41508,-2.926994 3.13964,-2.619064 l 0.63515,0.124098 0.33254,-0.934601 -8.14008,-2.896331 -0.33254,0.934601 0.57079,0.304989 c 1.53147,0.850602 1.67001,1.511272 0.77966,4.013592 l -4.21577,11.848336 c -0.89036,2.50232 -1.41508,2.926994 -3.13964,2.619063 l -0.63515,-0.124097 -0.33254,0.934601 z"
   style="font-size:32px;letter-spacing:30.07382202px;fill:#dedede;fill-opacity:1"
   id="path918"
   inkscape:connector-curvature="0" />
          <path
   d="m 410.69415,51.713109 0.63898,-0.7588 -6.53547,-5.50342 -0.63897,0.758799 c 2.04708,1.891159 1.7946,3.184587 -0.1159,4.211361 l -13.19697,7.126871 5.04986,-14.740461 c 0.83606,-2.433555 2.12691,-1.681219 3.63678,-0.49345 l 0.63897,-0.758799 -7.31874,-6.163007 -0.63897,0.7588 0.20355,0.255075 c 1.2754,1.366841 1.36173,2.108885 0.54113,4.722797 l -5.74677,18.002372 1.46864,1.236724 16.30555,-8.483456 c 3.04804,-1.533078 3.68315,-1.542104 5.70833,-0.171406 z"
   style="font-size:32px;letter-spacing:30.07382202px;fill:#dedede;fill-opacity:1"
   id="path921"
   inkscape:connector-curvature="0" />
          <path
   d="m 434.29378,110.7794 -0.0516,-1.08725 c -5.57559,-1.07206 -8.02198,-2.77001 -10.18805,-7.01759 -1.38105,-2.708188 -0.87303,-3.613828 0.86592,-4.50061 l 6.01503,-3.06739 1.07577,2.109537 c 1.14845,2.252074 0.64497,3.730133 -1.88934,5.381713 l 0.49427,0.96925 8.52367,-4.34668 -0.49427,-0.969247 c -3.16828,1.112788 -4.14377,0.819988 -5.37945,-1.603129 l -1.10484,-2.166552 4.84624,-2.471358 c 1.82446,-0.930393 2.74407,-0.465415 4.02336,2.043225 1.97709,3.876987 1.99865,6.595961 0.14328,10.846821 l 0.83579,0.72324 4.12823,-4.58373 -8.30085,-16.277648 -0.88373,0.450659 0.27791,0.756294 c 0.5564,1.58414 0.14673,2.26002 -2.19086,3.452086 l -11.20336,5.713197 c -2.33759,1.192066 -3.12523,1.126757 -4.08073,-0.253859 l -0.44896,-0.669069 -0.88372,0.450659 8.4753,16.619731 z"
   style="font-size:32px;letter-spacing:30.07382202px;fill:#dedede;fill-opacity:1"
   id="path923"
   inkscape:connector-curvature="0" />
          <path
   d="m 445.38359,167.01353 c 3.79764,-0.28074 5.06858,-2.6208 5.81863,-7.23265 l 0.66249,-4.05989 c 0.53708,-3.15217 1.43437,-4.46991 3.15767,-4.5973 1.91478,-0.14155 3.56567,1.79 3.76147,4.43877 0.22648,3.06364 -1.21235,5.73699 -4.46189,8.22332 l 0.45844,0.99291 5.63234,-2.37369 -0.0849,-1.14887 -1.17718,-0.29802 c 0.95293,-1.86734 1.29716,-3.72176 1.11786,-6.14714 -0.39397,-5.32946 -3.98683,-7.05328 -6.25265,-6.88578 -4.30824,0.31848 -5.05717,5.37947 -5.35408,7.00578 l -0.76892,4.35655 c -0.53236,3.21599 -1.40954,4.37181 -3.32431,4.51335 -2.7126,0.20053 -4.93904,-2.13769 -5.18203,-5.42473 -0.2713,-3.66998 1.78816,-7.06304 5.89935,-9.61307 l -0.47024,-1.15247 -7.15471,2.61458 0.0873,1.18078 1.64047,0.48839 c -1.22835,2.04813 -1.7109,4.20156 -1.52217,6.7546 0.36802,4.97841 3.68756,8.64767 7.51711,8.36458 z"
   style="font-size:32px;letter-spacing:30.07382202px;fill:#dedede;fill-opacity:1"
   id="path925"
   inkscape:connector-curvature="0" />
        </g>
      </svg>