<?xml version="1.0" encoding="UTF-8" standalone="no"?>
<!-- Generator: Adobe Illustrator 16.0.0, SVG Export Plug-In . SVG Version: 6.00 Build 0)  -->

<svg
   xmlns:dc="http://purl.org/dc/elements/1.1/"
   xmlns:cc="http://creativecommons.org/ns#"
   xmlns:rdf="http://www.w3.org/1999/02/22-rdf-syntax-ns#"
   xmlns:svg="http://www.w3.org/2000/svg"
   xmlns="http://www.w3.org/2000/svg"
   xmlns:sodipodi="http://sodipodi.sourceforge.net/DTD/sodipodi-0.dtd"
   xmlns:inkscape="http://www.inkscape.org/namespaces/inkscape"
   version="1.1"
   id="Capa_1"
   x="0px"
   y="0px"
   width="495.39789"
   height="461.30438"
   viewBox="0 0 495.39788 461.30437"
   xml:space="preserve"
   sodipodi:docname="home-icon.svg"
   inkscape:version="0.92.3 (2405546, 2018-03-11)"><metadata
   id="metadata47"><rdf:RDF><cc:Work
       rdf:about=""><dc:format>image/svg+xml</dc:format><dc:type
         rdf:resource="http://purl.org/dc/dcmitype/StillImage" /><dc:title></dc:title></cc:Work></rdf:RDF></metadata><defs
   id="defs45" /><sodipodi:namedview
   pagecolor="#ffffff"
   bordercolor="#666666"
   borderopacity="1"
   objecttolerance="10"
   gridtolerance="10"
   guidetolerance="10"
   inkscape:pageopacity="0"
   inkscape:pageshadow="2"
   inkscape:window-width="1440"
   inkscape:window-height="872"
   id="namedview43"
   showgrid="false"
   fit-margin-top="0"
   fit-margin-left="0"
   fit-margin-right="0"
   fit-margin-bottom="0"
   inkscape:zoom="0.47638463"
   inkscape:cx="363.76666"
   inkscape:cy="223.71022"
   inkscape:window-x="1366"
   inkscape:window-y="0"
   inkscape:window-maximized="1"
   inkscape:current-layer="Capa_1" />
<g
   id="g10"
   transform="translate(-5e-4,-17.046608)"
   style="fill:#fefefe;fill-opacity:1">
	<g
   id="g8"
   style="fill:#fefefe;fill-opacity:1">
		<g
   id="g6"
   style="fill:#fefefe;fill-opacity:1">
			<path
   d="m 487.083,225.514 -75.08,-75.08 v -86.73 c 0,-15.682 -12.708,-28.391 -28.413,-28.391 -15.669,0 -28.377,12.709 -28.377,28.391 V 93.645 L 299.31,37.74 C 271.671,10.116 223.616,10.165 196.04,37.79 L 8.312,225.514 c -11.082,11.104 -11.082,29.071 0,40.158 11.087,11.101 29.089,11.101 40.172,0 L 236.194,77.943 c 6.115,-6.083 16.893,-6.083 22.976,-0.018 l 187.742,187.747 c 5.567,5.551 12.825,8.312 20.081,8.312 7.271,0 14.541,-2.764 20.091,-8.312 11.086,-11.086 11.086,-29.053 -10e-4,-40.158 z"
   id="path2"
   inkscape:connector-curvature="0"
   style="fill:#fefefe;fill-opacity:1" />
			<path
   d="m 257.561,131.836 c -5.454,-5.451 -14.285,-5.451 -19.723,0 L 72.712,296.913 c -2.607,2.606 -4.085,6.164 -4.085,9.877 v 120.401 c 0,28.253 22.908,51.16 51.16,51.16 h 81.754 v -126.61 h 92.299 v 126.61 h 81.755 c 28.251,0 51.159,-22.907 51.159,-51.159 V 306.79 c 0,-3.713 -1.465,-7.271 -4.085,-9.877 z"
   id="path4"
   inkscape:connector-curvature="0"
   style="fill:#fefefe;fill-opacity:1" />
		</g>
	</g>
</g>
<g
   id="g12"
   transform="translate(-5e-4,-17.046608)">
</g>
<g
   id="g14"
   transform="translate(-5e-4,-17.046608)">
</g>
<g
   id="g16"
   transform="translate(-5e-4,-17.046608)">
</g>
<g
   id="g18"
   transform="translate(-5e-4,-17.046608)">
</g>
<g
   id="g20"
   transform="translate(-5e-4,-17.046608)">
</g>
<g
   id="g22"
   transform="translate(-5e-4,-17.046608)">
</g>
<g
   id="g24"
   transform="translate(-5e-4,-17.046608)">
</g>
<g
   id="g26"
   transform="translate(-5e-4,-17.046608)">
</g>
<g
   id="g28"
   transform="translate(-5e-4,-17.046608)">
</g>
<g
   id="g30"
   transform="translate(-5e-4,-17.046608)">
</g>
<g
   id="g32"
   transform="translate(-5e-4,-17.046608)">
</g>
<g
   id="g34"
   transform="translate(-5e-4,-17.046608)">
</g>
<g
   id="g36"
   transform="translate(-5e-4,-17.046608)">
</g>
<g
   id="g38"
   transform="translate(-5e-4,-17.046608)">
</g>
<g
   id="g40"
   transform="translate(-5e-4,-17.046608)">
</g>
</svg>