<?xml version="1.0" encoding="UTF-8" standalone="no"?>
<!-- Created with Inkscape (http://www.inkscape.org/) -->

<svg
   xmlns:dc="http://purl.org/dc/elements/1.1/"
   xmlns:cc="http://creativecommons.org/ns#"
   xmlns:rdf="http://www.w3.org/1999/02/22-rdf-syntax-ns#"
   xmlns:svg="http://www.w3.org/2000/svg"
   xmlns="http://www.w3.org/2000/svg"
   xmlns:sodipodi="http://sodipodi.sourceforge.net/DTD/sodipodi-0.dtd"
   xmlns:inkscape="http://www.inkscape.org/namespaces/inkscape"
   width="8.0271854mm"
   height="8.0271864mm"
   viewBox="0 0 8.0271854 8.0271864"
   version="1.1"
   id="svg6503"
   inkscape:version="0.92.3 (2405546, 2018-03-11)"
   sodipodi:docname="linkedin.svg">
  <defs
     id="defs6497" />
  <sodipodi:namedview
     id="base"
     pagecolor="#ffffff"
     bordercolor="#666666"
     borderopacity="1.0"
     inkscape:pageopacity="0.0"
     inkscape:pageshadow="2"
     inkscape:zoom="14.481547"
     inkscape:cx="8.1076235"
     inkscape:cy="13.079134"
     inkscape:document-units="mm"
     inkscape:current-layer="layer1"
     showgrid="false"
     inkscape:window-width="1319"
     inkscape:window-height="713"
     inkscape:window-x="47"
     inkscape:window-y="27"
     inkscape:window-maximized="1"
     fit-margin-top="0"
     fit-margin-left="0"
     fit-margin-right="0"
     fit-margin-bottom="0"
     inkscape:measure-start="0,0"
     inkscape:measure-end="0,0" />
  <metadata
     id="metadata6500">
    <rdf:RDF>
      <cc:Work
         rdf:about="">
        <dc:format>image/svg+xml</dc:format>
        <dc:type
           rdf:resource="http://purl.org/dc/dcmitype/StillImage" />
        <dc:title />
      </cc:Work>
    </rdf:RDF>
  </metadata>
  <g
     inkscape:label="Layer 1"
     inkscape:groupmode="layer"
     id="layer1"
     transform="translate(-48.147121,-98.706645)">
    <path
       style="opacity:1;fill:#6c6c74;fill-opacity:1;stroke:none;stroke-width:6.32061768;stroke-linecap:round;stroke-linejoin:round;stroke-miterlimit:4;stroke-dasharray:none;stroke-opacity:1"
       d="M 15.169922,0 A 15.169484,15.169484 0 0 0 0,15.169922 15.169484,15.169484 0 0 0 15.169922,30.339844 15.169484,15.169484 0 0 0 30.339844,15.169922 15.169484,15.169484 0 0 0 15.169922,0 Z M 9.796875,7.2675781 c 1.349745,0.00378 1.762952,0.8448455 1.734375,1.640625 -0.02495,0.6994394 -0.417835,1.3397019 -1.515625,1.4531249 -0.7363238,0.07597 -1.6250555,-0.3711507 -1.71875,-1.4062499 -0.091843,-1.0145008 0.7474091,-1.6901078 1.5,-1.6875 z m 9.615234,4.0839839 c 0.745212,0.06457 1.565201,0.365063 2.033203,0.824219 1.177463,1.155137 1.170685,2.005512 1.205079,2.701172 0.09445,1.903484 0.06836,6.583985 0.06836,6.583985 h -3.138672 c 0,0 0.0332,-3.412916 0.0332,-5.480469 0,-0.782362 -0.291912,-2.141746 -1.730469,-2.070313 -0.676573,0.03352 -1.473094,1.032949 -1.472656,1.351563 0.003,2.179086 0.0098,6.154297 0.0098,6.154297 l -3.160156,0.02344 -0.02149,-9.833984 2.63086,-0.08789 c 0.002,-0.0039 0.09955,0.864692 0.132812,1.392578 0.550976,-0.503093 0.99045,-1.274622 2.705078,-1.542968 0.215912,-0.03379 0.456674,-0.03715 0.705078,-0.01563 z M 8.390625,11.560547 h 3.058594 v 9.896484 H 8.390625 Z"
       transform="matrix(0.26458333,0,0,0.26458333,48.147121,98.706645)"
       id="path6474"
       inkscape:connector-curvature="0" />
  </g>
</svg>
