<?xml version="1.0" encoding="UTF-8" standalone="no"?>
<!-- Generator: Adobe Illustrator 24.0.0, SVG Export Plug-In . SVG Version: 6.00 Build 0)  -->

<svg
   xmlns:dc="http://purl.org/dc/elements/1.1/"
   xmlns:cc="http://creativecommons.org/ns#"
   xmlns:rdf="http://www.w3.org/1999/02/22-rdf-syntax-ns#"
   xmlns:svg="http://www.w3.org/2000/svg"
   xmlns="http://www.w3.org/2000/svg"
   xmlns:sodipodi="http://sodipodi.sourceforge.net/DTD/sodipodi-0.dtd"
   xmlns:inkscape="http://www.inkscape.org/namespaces/inkscape"
   version="1.1"
   id="Layer_1"
   x="0px"
   y="0px"
   viewBox="0 0 876.24036 226.71754"
   xml:space="preserve"
   sodipodi:docname="logo.svg"
   width="876.24036"
   height="226.71754"
   inkscape:version="0.92.3 (2405546, 2018-03-11)"><metadata
   id="metadata200"><rdf:RDF><cc:Work
       rdf:about=""><dc:format>image/svg+xml</dc:format><dc:type
         rdf:resource="http://purl.org/dc/dcmitype/StillImage" /><dc:title /></cc:Work></rdf:RDF></metadata><defs
   id="defs198">
			
	</defs><sodipodi:namedview
   pagecolor="#ffffff"
   bordercolor="#666666"
   borderopacity="1"
   objecttolerance="10"
   gridtolerance="10"
   guidetolerance="10"
   inkscape:pageopacity="0"
   inkscape:pageshadow="2"
   inkscape:window-width="1319"
   inkscape:window-height="713"
   id="namedview196"
   showgrid="false"
   fit-margin-top="0"
   fit-margin-left="0"
   fit-margin-right="0"
   fit-margin-bottom="0"
   inkscape:zoom="1.5883778"
   inkscape:cx="86.905383"
   inkscape:cy="89.485874"
   inkscape:window-x="1327"
   inkscape:window-y="27"
   inkscape:window-maximized="1"
   inkscape:current-layer="Layer_1"
   inkscape:snap-global="true"
   inkscape:snap-bbox="true"
   inkscape:bbox-paths="true"
   showguides="true"
   inkscape:guide-bbox="true" />
<style
   type="text/css"
   id="style2">
	.st0{fill:none;stroke:#000000;stroke-miterlimit:10;}
	.st1{fill:none;}
	.st2{stroke:#000000;stroke-miterlimit:10;}
</style>

<g
   aria-label="CREATIVES"
   style="font-style:normal;font-variant:normal;font-weight:normal;font-stretch:normal;font-size:40px;line-height:1.25;font-family:'Source Sans Pro';-inkscape-font-specification:'Source Sans Pro';letter-spacing:0px;word-spacing:0px;fill:#f5f5f5;fill-opacity:1;stroke:none;stroke-width:1"
   id="text930"
   transform="translate(39.999998)"><path
     d="m 314.87631,128.84678 -3.66934,-2.048 c -7.424,11.09333 -17.152,12.62933 -21.07733,12.62933 -8.53333,0 -21.33333,-6.656 -21.33333,-25.856 0,-15.103998 8.36266,-26.282665 19.62666,-26.282665 13.14134,0 17.408,9.045333 21.93067,18.346665 h 2.73067 l -4.096,-20.565332 h -2.816 l -1.792,3.584 c -5.03467,-3.84 -10.24,-5.461333 -17.57867,-5.461333 -11.34933,0 -28.07467,10.410667 -28.07467,30.464005 0,17.06666 12.88534,29.86666 30.12267,29.86666 11.008,0 19.712,-4.864 26.02667,-14.67733 z"
     style="font-style:normal;font-variant:normal;font-weight:normal;font-stretch:normal;font-size:85.33333588px;font-family:'TeX Gyre Bonum Math';-inkscape-font-specification:'TeX Gyre Bonum Math';letter-spacing:10px;fill:#f5f5f5;fill-opacity:1;stroke-width:1"
     id="path1329"
     inkscape:connector-curvature="0" /><path
     d="m 392.73631,142.41478 v -2.64533 c -4.18133,-0.768 -6.48533,-2.13334 -9.13066,-5.54667 l -14.16534,-20.05333 c 14.08,-2.048 15.78667,-10.92267 15.78667,-15.189338 0,-9.130667 -7.424,-14.677334 -19.712,-14.677334 h -34.73067 v 2.645333 l 2.13333,0.256 c 4.43734,0.597334 5.54667,2.389334 5.54667,9.386667 v 33.536002 c 0,6.99733 -1.10933,8.78933 -5.54667,9.38667 l -2.13333,0.256 v 2.64533 h 24.832 v -2.64533 l -3.072,-0.256 c -4.352,-0.42667 -5.54667,-2.47467 -5.54667,-9.38667 v -15.104 h 12.288 l 19.20001,27.392 z M 376.01098,99.321445 c 0,4.010665 -1.62133,12.032005 -14.67734,12.032005 h -14.336 V 92.836112 c 0,-2.986667 1.62134,-5.034667 12.62934,-5.034667 10.92266,0 16.384,3.84 16.384,11.52 z"
     style="font-style:normal;font-variant:normal;font-weight:normal;font-stretch:normal;font-size:85.33333588px;font-family:'TeX Gyre Bonum Math';-inkscape-font-specification:'TeX Gyre Bonum Math';letter-spacing:10px;fill:#f5f5f5;fill-opacity:1;stroke-width:1"
     id="path1331"
     inkscape:connector-curvature="0" /><path
     d="m 459.79898,124.23878 -2.64533,-1.19467 c -9.30134,11.94667 -16.29867,15.70134 -29.01334,15.70134 -8.10667,0 -9.64267,-2.304 -9.64267,-7.50934 v -18.00533 h 6.31467 c 6.74133,0 9.64267,2.98667 10.496,11.008 h 2.90133 V 98.724112 h -2.90133 c -1.19467,8.874668 -3.072,10.837338 -10.32533,10.837338 h -6.48534 V 95.054778 c 0,-5.461333 2.21867,-7.082667 9.728,-7.082667 11.60534,0 18.09067,3.242667 25.94134,12.799999 l 2.73067,-1.109332 -5.888,-15.36 h -48.72534 v 2.645333 l 2.13333,0.256 c 4.43734,0.597334 5.54667,2.389334 5.54667,9.386667 v 33.536002 c 0,6.99733 -1.10933,8.78933 -5.54667,9.38667 l -2.13333,0.256 v 2.64533 h 49.74934 z"
     style="font-style:normal;font-variant:normal;font-weight:normal;font-stretch:normal;font-size:85.33333588px;font-family:'TeX Gyre Bonum Math';-inkscape-font-specification:'TeX Gyre Bonum Math';letter-spacing:10px;fill:#f5f5f5;fill-opacity:1;stroke-width:1"
     id="path1333"
     inkscape:connector-curvature="0" /><path
     d="m 532.06698,142.41478 v -2.64533 c -5.54667,-0.85334 -6.57067,-1.792 -9.64267,-9.728 L 504.33364,84.302778 h -7.936 l -14.67733,37.632002 c -5.71733,14.592 -7.08267,16.55467 -12.8,17.664 l -0.93867,0.17067 v 2.64533 h 22.86934 v -2.64533 c -3.072,-0.42667 -4.52267,-0.768 -5.46134,-1.36534 -3.072,-2.048 -2.38933,-5.46133 -0.512,-10.24 l 2.73067,-7.33866 h 22.016 l 4.26667,11.008 c 1.87733,5.29066 1.28,6.912 -5.80267,7.936 v 2.64533 z m -23.97867,-25.25867 h -19.2 l 9.472,-25.599999 z"
     style="font-style:normal;font-variant:normal;font-weight:normal;font-stretch:normal;font-size:85.33333588px;font-family:'TeX Gyre Bonum Math';-inkscape-font-specification:'TeX Gyre Bonum Math';letter-spacing:10px;fill:#f5f5f5;fill-opacity:1;stroke-width:1"
     id="path1335"
     inkscape:connector-curvature="0" /><path
     d="m 595.11763,99.321445 -4.77867,-15.018667 h -49.49333 l -4.864,15.018667 2.816,1.024005 c 5.03467,-8.874672 10.92267,-12.800005 18.77333,-12.800005 2.816,0 3.75467,0.853333 3.75467,3.413333 v 39.168002 c 0,6.912 -1.28,9.04533 -5.54667,9.38667 l -3.328,0.256 v 2.64533 h 26.28267 v -2.64533 l -3.328,-0.256 c -4.26667,-0.34134 -5.54667,-2.47467 -5.54667,-9.38667 V 91.300111 c 0,-2.986666 0.68267,-3.754666 3.49867,-3.754666 7.50933,0 13.99467,4.437333 18.77333,12.800005 z"
     style="font-style:normal;font-variant:normal;font-weight:normal;font-stretch:normal;font-size:85.33333588px;font-family:'TeX Gyre Bonum Math';-inkscape-font-specification:'TeX Gyre Bonum Math';letter-spacing:10px;fill:#f5f5f5;fill-opacity:1;stroke-width:1"
     id="path1337"
     inkscape:connector-curvature="0" /><path
     d="m 627.65764,142.41478 v -2.64533 l -1.70667,-0.256 c -4.608,-0.768 -5.54666,-2.304 -5.54666,-9.38667 V 96.590778 c 0,-7.082667 0.93866,-8.618667 5.54666,-9.386667 l 1.70667,-0.256 v -2.645333 h -23.04 v 2.645333 l 1.70667,0.256 c 4.608,0.768 5.54666,2.304 5.54666,9.386667 v 33.536002 c 0,7.08267 -0.93866,8.61867 -5.54666,9.38667 l -1.70667,0.256 v 2.64533 z"
     style="font-style:normal;font-variant:normal;font-weight:normal;font-stretch:normal;font-size:85.33333588px;font-family:'TeX Gyre Bonum Math';-inkscape-font-specification:'TeX Gyre Bonum Math';letter-spacing:10px;fill:#f5f5f5;fill-opacity:1;stroke-width:1"
     id="path1339"
     inkscape:connector-curvature="0" /><path
     d="m 702.83897,86.948111 v -2.645333 h -22.784 v 2.645333 c 7.424,0.341334 9.13067,3.413334 6.99734,8.789334 L 672.37497,132.94278 657.35631,94.201445 c -2.47467,-6.4 1.45066,-7.082667 6.57066,-7.253334 v -2.645333 h -25.51466 v 2.645333 l 0.85333,0.170667 c 4.94933,0.597333 6.4,1.962667 9.216,8.704 l 19.2,46.592002 h 5.12 l 18.688,-45.312002 c 3.584,-8.362667 4.864,-9.472 11.34933,-10.154667 z"
     style="font-style:normal;font-variant:normal;font-weight:normal;font-stretch:normal;font-size:85.33333588px;font-family:'TeX Gyre Bonum Math';-inkscape-font-specification:'TeX Gyre Bonum Math';letter-spacing:10px;fill:#f5f5f5;fill-opacity:1;stroke-width:1"
     id="path1341"
     inkscape:connector-curvature="0" /><path
     d="m 770.79899,124.23878 -2.64533,-1.19467 c -9.30133,11.94667 -16.29867,15.70134 -29.01333,15.70134 -8.10667,0 -9.64267,-2.304 -9.64267,-7.50934 v -18.00533 h 6.31467 c 6.74133,0 9.64266,2.98667 10.496,11.008 h 2.90133 V 98.724112 h -2.90133 c -1.19467,8.874668 -3.072,10.837338 -10.32534,10.837338 h -6.48533 V 95.054778 c 0,-5.461333 2.21867,-7.082667 9.728,-7.082667 11.60533,0 18.09067,3.242667 25.94133,12.799999 l 2.73067,-1.109332 -5.888,-15.36 h -48.72533 v 2.645333 l 2.13333,0.256 c 4.43733,0.597334 5.54667,2.389334 5.54667,9.386667 v 33.536002 c 0,6.99733 -1.10934,8.78933 -5.54667,9.38667 l -2.13333,0.256 v 2.64533 h 49.74933 z"
     style="font-style:normal;font-variant:normal;font-weight:normal;font-stretch:normal;font-size:85.33333588px;font-family:'TeX Gyre Bonum Math';-inkscape-font-specification:'TeX Gyre Bonum Math';letter-spacing:10px;fill:#f5f5f5;fill-opacity:1;stroke-width:1"
     id="path1343"
     inkscape:connector-curvature="0" /><path
     d="m 836.24033,125.17745 c 0,-10.15467 -5.97334,-13.99467 -18.09067,-16.896 l -10.66667,-2.56 c -8.27733,-2.048 -11.60533,-4.69334 -11.60533,-9.301338 0,-5.120001 5.46133,-9.130667 12.544,-9.130667 8.192,0 15.01867,4.352 20.992,13.482665 l 2.73067,-1.023998 -5.20534,-15.445334 h -3.072 l -1.024,3.072 c -4.77866,-2.901333 -9.64266,-4.181333 -16.128,-4.181333 -14.25066,0 -19.54133,9.216 -19.54133,15.274667 0,11.519998 13.312,14.506668 17.57867,15.615998 l 11.43466,2.90134 c 8.448,2.048 11.34934,4.608 11.34934,9.728 0,7.25333 -6.656,12.71466 -15.44534,12.71466 -9.81333,0 -18.432,-6.144 -24.40533,-17.57866 l -3.15733,1.024 5.54666,19.54133 h 3.15734 l 1.62133,-4.26667 c 5.20533,3.66934 10.83733,5.376 17.664,5.376 13.312,0 23.72267,-8.10666 23.72267,-18.34666 z"
     style="font-style:normal;font-variant:normal;font-weight:normal;font-stretch:normal;font-size:85.33333588px;font-family:'TeX Gyre Bonum Math';-inkscape-font-specification:'TeX Gyre Bonum Math';letter-spacing:10px;fill:#f5f5f5;fill-opacity:1;stroke-width:1"
     id="path1345"
     inkscape:connector-curvature="0" /></g>

<line
   class="st2"
   x1="183.66409"
   y1="26.106869"
   x2="199.2366"
   y2="54.503841"
   id="line73"
   style="stroke:#ababab;stroke-width:2;stroke-miterlimit:10;stroke-dasharray:none;stroke-opacity:1" /><line
   class="st0"
   x1="183.66409"
   y1="25.190853"
   x2="222.13736"
   y2="82.90078"
   id="line75"
   style="fill:none;stroke:#ababab;stroke-width:2;stroke-miterlimit:10;stroke-dasharray:none;stroke-opacity:1" /><line
   class="st0"
   x1="222.13736"
   y1="82.90078"
   x2="199.2366"
   y2="54.503841"
   id="line77"
   style="fill:none;stroke:#ababab;stroke-width:2;stroke-miterlimit:10;stroke-dasharray:none;stroke-opacity:1" /><line
   class="st0"
   x1="135.11453"
   y1="47.175594"
   x2="199.2366"
   y2="54.503841"
   id="line79"
   style="fill:none;stroke:#ababab;stroke-width:2;stroke-miterlimit:10;stroke-dasharray:none;stroke-opacity:1" /><line
   class="st0"
   x1="135.11453"
   y1="46.259548"
   x2="150.68704"
   y2="10.534355"
   id="line81"
   style="fill:none;stroke:#ababab;stroke-width:2;stroke-miterlimit:10;stroke-dasharray:none;stroke-opacity:1" /><line
   class="st0"
   x1="182.74808"
   y1="25.190853"
   x2="150.68704"
   y2="10.534355"
   id="line83"
   style="fill:none;stroke:#ababab;stroke-width:2;stroke-miterlimit:10;stroke-dasharray:none;stroke-opacity:1" /><line
   class="st0"
   x1="150.68704"
   y1="11.450401"
   x2="199.2366"
   y2="54.503841"
   id="line85"
   style="fill:none;stroke:#ababab;stroke-width:2;stroke-miterlimit:10;stroke-dasharray:none;stroke-opacity:1" /><line
   class="st0"
   x1="180.00003"
   y1="114.96185"
   x2="199.2366"
   y2="54.503841"
   id="line87"
   style="fill:none;stroke:#ababab;stroke-width:2;stroke-miterlimit:10;stroke-dasharray:none;stroke-opacity:1" /><line
   class="st0"
   x1="220.30533"
   y1="117.70995"
   x2="222.13736"
   y2="82.90078"
   id="line89"
   style="fill:none;stroke:#ababab;stroke-width:2;stroke-miterlimit:10;stroke-dasharray:none;stroke-opacity:1" /><line
   class="st0"
   x1="220.30533"
   y1="117.70995"
   x2="180.00003"
   y2="114.96185"
   id="line91"
   style="fill:none;stroke:#ababab;stroke-width:2;stroke-miterlimit:10;stroke-dasharray:none;stroke-opacity:1" /><line
   class="st0"
   x1="221.22134"
   y1="118.62597"
   x2="199.2366"
   y2="54.503841"
   id="line93"
   style="fill:none;stroke:#ababab;stroke-width:2;stroke-miterlimit:10;stroke-dasharray:none;stroke-opacity:1" /><line
   class="st0"
   x1="219.38931"
   y1="117.70995"
   x2="218.4733"
   y2="155.26721"
   id="line95"
   style="fill:none;stroke:#ababab;stroke-width:2;stroke-miterlimit:10;stroke-dasharray:none;stroke-opacity:1" /><line
   class="st0"
   x1="217.55728"
   y1="155.26721"
   x2="193.74039"
   y2="177.25195"
   id="line97"
   style="fill:none;stroke:#ababab;stroke-width:2;stroke-miterlimit:10;stroke-dasharray:none;stroke-opacity:1" /><line
   class="st0"
   x1="180.00003"
   y1="115.87786"
   x2="193.74039"
   y2="177.25195"
   id="line99"
   style="fill:none;stroke:#ababab;stroke-width:2;stroke-miterlimit:10;stroke-dasharray:none;stroke-opacity:1" /><line
   class="st0"
   x1="193.74039"
   y1="176.33588"
   x2="220.30533"
   y2="117.70995"
   id="line101"
   style="fill:none;stroke:#ababab;stroke-width:2;stroke-miterlimit:10;stroke-dasharray:none;stroke-opacity:1" /><line
   class="st0"
   x1="217.55728"
   y1="155.26721"
   x2="176.33585"
   y2="206.56488"
   id="line103"
   style="fill:none;stroke:#ababab;stroke-width:2;stroke-miterlimit:10;stroke-dasharray:none;stroke-opacity:1" /><line
   class="st0"
   x1="142.44278"
   y1="216.64124"
   x2="176.33585"
   y2="206.56488"
   id="line105"
   style="fill:none;stroke:#ababab;stroke-width:2;stroke-miterlimit:10;stroke-dasharray:none;stroke-opacity:1" /><line
   class="st0"
   x1="142.44278"
   y1="215.72522"
   x2="193.74039"
   y2="177.25195"
   id="line107"
   style="fill:none;stroke:#ababab;stroke-width:2;stroke-miterlimit:10;stroke-dasharray:none;stroke-opacity:1" /><line
   class="st0"
   x1="129.61832"
   y1="176.33588"
   x2="193.74039"
   y2="176.33588"
   id="line109"
   style="fill:none;stroke:#ababab;stroke-width:2;stroke-miterlimit:10;stroke-dasharray:none;stroke-opacity:1" /><line
   class="st0"
   x1="129.61832"
   y1="177.25195"
   x2="142.44278"
   y2="216.64124"
   id="line111"
   style="fill:none;stroke:#ababab;stroke-width:2;stroke-miterlimit:10;stroke-dasharray:none;stroke-opacity:1" /><line
   class="st0"
   x1="180.00003"
   y1="114.96185"
   x2="130.53433"
   y2="176.33588"
   id="line113"
   style="fill:none;stroke:#ababab;stroke-width:2;stroke-miterlimit:10;stroke-dasharray:none;stroke-opacity:1" /><line
   class="st0"
   x1="129.61832"
   y1="175.41986"
   x2="112.21378"
   y2="111.29772"
   id="line115"
   style="fill:none;stroke:#ababab;stroke-width:2;stroke-miterlimit:10;stroke-dasharray:none;stroke-opacity:1" /><line
   class="st0"
   x1="113.12979"
   y1="111.29772"
   x2="180.00003"
   y2="114.96185"
   id="line117"
   style="fill:none;stroke:#ababab;stroke-width:2;stroke-miterlimit:10;stroke-dasharray:none;stroke-opacity:1" /><line
   class="st0"
   x1="55.41983"
   y1="148.85498"
   x2="113.12979"
   y2="111.29772"
   id="line119"
   style="fill:none;stroke:#ababab;stroke-width:2;stroke-miterlimit:10;stroke-dasharray:none;stroke-opacity:1" /><line
   class="st0"
   x1="55.41983"
   y1="148.85498"
   x2="130.53433"
   y2="176.33588"
   id="line121"
   style="fill:none;stroke:#ababab;stroke-width:2;stroke-miterlimit:10;stroke-dasharray:none;stroke-opacity:1" /><line
   class="st0"
   x1="76.488556"
   y1="208.39697"
   x2="55.41983"
   y2="148.85498"
   id="line123"
   style="fill:none;stroke:#ababab;stroke-width:2;stroke-miterlimit:10;stroke-dasharray:none;stroke-opacity:1" /><line
   class="st0"
   x1="25.190828"
   y1="171.75574"
   x2="55.41983"
   y2="148.85498"
   id="line125"
   style="fill:none;stroke:#ababab;stroke-width:2;stroke-miterlimit:10;stroke-dasharray:none;stroke-opacity:1" /><line
   class="st0"
   x1="25.190828"
   y1="172.67175"
   x2="76.488556"
   y2="208.39697"
   id="line127"
   style="fill:none;stroke:#ababab;stroke-width:2;stroke-miterlimit:10;stroke-dasharray:none;stroke-opacity:1" /><line
   class="st0"
   x1="24.274813"
   y1="172.67175"
   x2="45.343536"
   y2="201.06873"
   id="line129"
   style="fill:none;stroke:#ababab;stroke-width:2;stroke-miterlimit:10;stroke-dasharray:none;stroke-opacity:1" /><line
   class="st0"
   x1="143.3588"
   y1="216.64124"
   x2="76.488556"
   y2="209.31299"
   id="line131"
   style="fill:none;stroke:#ababab;stroke-width:2;stroke-miterlimit:10;stroke-dasharray:none;stroke-opacity:1" /><line
   class="st0"
   x1="76.488556"
   y1="208.39697"
   x2="45.343536"
   y2="201.06873"
   id="line133"
   style="fill:none;stroke:#ababab;stroke-width:2;stroke-miterlimit:10;stroke-dasharray:none;stroke-opacity:1" /><line
   class="st0"
   x1="129.61832"
   y1="176.33588"
   x2="76.488556"
   y2="208.39697"
   id="line135"
   style="fill:none;stroke:#ababab;stroke-width:2;stroke-miterlimit:10;stroke-dasharray:none;stroke-opacity:1" /><line
   class="st0"
   x1="59.083893"
   y1="69.160301"
   x2="112.21378"
   y2="111.29772"
   id="line137"
   style="fill:none;stroke:#ababab;stroke-width:2;stroke-miterlimit:10;stroke-dasharray:none;stroke-opacity:1" /><line
   class="st0"
   x1="59.083893"
   y1="68.244293"
   x2="55.41983"
   y2="148.85498"
   id="line139"
   style="fill:none;stroke:#ababab;stroke-width:2;stroke-miterlimit:10;stroke-dasharray:none;stroke-opacity:1" /><line
   class="st0"
   x1="10.534333"
   y1="108.54961"
   x2="55.41983"
   y2="148.85498"
   id="line141"
   style="fill:none;stroke:#ababab;stroke-width:2;stroke-miterlimit:10;stroke-dasharray:none;stroke-opacity:1" /><line
   class="st0"
   x1="25.190828"
   y1="171.75574"
   x2="10.534333"
   y2="108.54961"
   id="line143"
   style="fill:none;stroke:#ababab;stroke-width:2;stroke-miterlimit:10;stroke-dasharray:none;stroke-opacity:1" /><line
   class="st0"
   x1="25.190828"
   y1="173.58783"
   x2="2.290071"
   y2="142.44275"
   id="line145"
   style="fill:none;stroke:#ababab;stroke-width:2;stroke-miterlimit:10;stroke-dasharray:none;stroke-opacity:1" /><line
   class="st0"
   x1="7.7862868"
   y1="75.572533"
   x2="1.3740553"
   y2="142.44275"
   id="line147"
   style="fill:none;stroke:#ababab;stroke-width:2;stroke-miterlimit:10;stroke-dasharray:none;stroke-opacity:1" /><line
   class="st0"
   x1="58.167877"
   y1="69.160301"
   x2="11.450349"
   y2="108.54961"
   id="line149"
   style="fill:none;stroke:#ababab;stroke-width:2;stroke-miterlimit:10;stroke-dasharray:none;stroke-opacity:1" /><line
   class="st0"
   x1="27.938875"
   y1="46.259548"
   x2="7.7862868"
   y2="75.572533"
   id="line151"
   style="fill:none;stroke:#ababab;stroke-width:2;stroke-miterlimit:10;stroke-dasharray:none;stroke-opacity:1" /><line
   class="st0"
   x1="58.167877"
   y1="68.244293"
   x2="27.938875"
   y2="46.259548"
   id="line153"
   style="fill:none;stroke:#ababab;stroke-width:2;stroke-miterlimit:10;stroke-dasharray:none;stroke-opacity:1" /><line
   class="st0"
   x1="52.671783"
   y1="20.61068"
   x2="27.938875"
   y2="46.259548"
   id="line155"
   style="fill:none;stroke:#ababab;stroke-width:2;stroke-miterlimit:10;stroke-dasharray:none;stroke-opacity:1" /><line
   class="st0"
   x1="83.816803"
   y1="12.366417"
   x2="27.938875"
   y2="46.259548"
   id="line157"
   style="fill:none;stroke:#ababab;stroke-width:2;stroke-miterlimit:10;stroke-dasharray:none;stroke-opacity:1" /><line
   class="st0"
   x1="51.755646"
   y1="21.526726"
   x2="82.900787"
   y2="13.282463"
   id="line159"
   style="fill:none;stroke:#ababab;stroke-width:2;stroke-miterlimit:10;stroke-dasharray:none;stroke-opacity:1" /><line
   class="st0"
   x1="59.083893"
   y1="69.160301"
   x2="83.816803"
   y2="12.366417"
   id="line161"
   style="fill:none;stroke:#ababab;stroke-width:2;stroke-miterlimit:10;stroke-dasharray:none;stroke-opacity:1" /><line
   class="st0"
   x1="135.11453"
   y1="46.259548"
   x2="83.816803"
   y2="12.366417"
   id="line163"
   style="fill:none;stroke:#ababab;stroke-width:2;stroke-miterlimit:10;stroke-dasharray:none;stroke-opacity:1" /><line
   class="st0"
   x1="59.083893"
   y1="69.160301"
   x2="136.03055"
   y2="46.259548"
   id="line165"
   style="fill:none;stroke:#ababab;stroke-width:2;stroke-miterlimit:10;stroke-dasharray:none;stroke-opacity:1" /><line
   class="st0"
   x1="113.12979"
   y1="109.46563"
   x2="136.03055"
   y2="46.259548"
   id="line167"
   style="fill:none;stroke:#ababab;stroke-width:2;stroke-miterlimit:10;stroke-dasharray:none;stroke-opacity:1" /><line
   class="st0"
   x1="180.00003"
   y1="114.96185"
   x2="135.11453"
   y2="46.259548"
   id="line169"
   style="fill:none;stroke:#ababab;stroke-width:2;stroke-miterlimit:10;stroke-dasharray:none;stroke-opacity:1" /><line
   class="st0"
   x1="150.68704"
   y1="10.534355"
   x2="83.816803"
   y2="12.366417"
   id="line171"
   style="fill:none;stroke:#ababab;stroke-width:2;stroke-miterlimit:10;stroke-dasharray:none;stroke-opacity:1" /><line
   class="st0"
   x1="116.79385"
   y1="1.3740461"
   x2="83.816803"
   y2="12.366417"
   id="line173"
   style="fill:none;stroke:#ababab;stroke-width:2;stroke-miterlimit:10;stroke-dasharray:none;stroke-opacity:1" /><line
   class="st0"
   x1="150.68704"
   y1="10.534355"
   x2="116.79385"
   y2="1.3740461"
   id="line175"
   style="fill:none;stroke:#ababab;stroke-width:2;stroke-miterlimit:10;stroke-dasharray:none;stroke-opacity:1" /><line
   class="st0"
   x1="142.44278"
   y1="216.64124"
   x2="109.46561"
   y2="225.80151"
   id="line179"
   style="fill:none;stroke:#ababab;stroke-width:2;stroke-miterlimit:10;stroke-dasharray:none;stroke-opacity:1" /><line
   class="st0"
   x1="76.488556"
   y1="208.39697"
   x2="109.46561"
   y2="225.80151"
   id="line181"
   style="fill:none;stroke:#ababab;stroke-width:2;stroke-miterlimit:10;stroke-dasharray:none;stroke-opacity:1" /><line
   class="st0"
   x1="45.343536"
   y1="201.06873"
   x2="109.46561"
   y2="225.80151"
   id="line183"
   style="fill:none;stroke:#ababab;stroke-width:2;stroke-miterlimit:10;stroke-dasharray:none;stroke-opacity:1" /><line
   class="st0"
   x1="7.7862868"
   y1="75.572533"
   x2="10.534333"
   y2="108.54961"
   id="line185"
   style="fill:none;stroke:#ababab;stroke-width:2;stroke-miterlimit:10;stroke-dasharray:none;stroke-opacity:1" /><line
   class="st0"
   x1="2.290071"
   y1="141.52673"
   x2="10.534333"
   y2="108.54961"
   id="line187"
   style="fill:none;stroke:#ababab;stroke-width:2;stroke-miterlimit:10;stroke-dasharray:none;stroke-opacity:1" /><line
   class="st0"
   x1="27.938875"
   y1="46.259548"
   x2="10.534333"
   y2="108.54961"
   id="line189"
   style="fill:none;stroke:#ababab;stroke-width:2;stroke-miterlimit:10;stroke-dasharray:none;stroke-opacity:1" /><g
   id="g1017"
   sodipodi:insensitive="true"><circle
     style="fill:#efefef;fill-opacity:0.94117647;stroke-width:0.91600001;stroke-miterlimit:10;stroke-dasharray:none"
     id="circle49"
     r="1.3740458"
     cy="75.572533"
     cx="7.7862868" /><circle
     style="fill:#efefef;fill-opacity:0.94117647;stroke-width:0.91600001;stroke-miterlimit:10;stroke-dasharray:none"
     id="circle71"
     r="1.8320611"
     cy="154.8092"
     cx="218.01529" /><circle
     style="fill:#efefef;fill-opacity:0.94117647;stroke-width:0.91600001;stroke-miterlimit:10;stroke-dasharray:none"
     id="circle67"
     r="2.2900763"
     cy="206.56488"
     cx="176.33585" /><circle
     style="fill:#efefef;fill-opacity:0.94117647;stroke-width:0.91600001;stroke-miterlimit:10;stroke-dasharray:none"
     id="circle69"
     r="1.8320611"
     cy="176.79388"
     cx="194.19839" /><circle
     style="fill:#efefef;fill-opacity:0.94117647;stroke-width:0.91600001;stroke-miterlimit:10;stroke-dasharray:none"
     id="circle65"
     r="3.6641221"
     cy="176.79388"
     cx="130.07632" /><circle
     style="fill:#efefef;fill-opacity:0.94117647;stroke-width:0.91600001;stroke-miterlimit:10;stroke-dasharray:none"
     id="circle55"
     r="2.2900763"
     cy="148.85498"
     cx="55.41983" /><circle
     style="fill:#efefef;fill-opacity:0.94117647;stroke-width:0.91600001;stroke-miterlimit:10;stroke-dasharray:none"
     id="circle57"
     r="3.6641221"
     cy="172.21375"
     cx="24.732821" /><circle
     style="fill:#efefef;fill-opacity:0.94117647;stroke-width:0.91600001;stroke-miterlimit:10;stroke-dasharray:none"
     id="circle63"
     r="5.4961834"
     cy="216.18323"
     cx="142.90079" /><circle
     style="fill:#efefef;fill-opacity:0.94117647;stroke-width:0.91600001;stroke-miterlimit:10;stroke-dasharray:none"
     id="circle61"
     r="2.2900763"
     cy="208.39697"
     cx="76.488556" /><circle
     style="fill:#efefef;fill-opacity:0.94117647;stroke-width:0.91600001;stroke-miterlimit:10;stroke-dasharray:none"
     id="circle59"
     r="1.8320611"
     cy="200.61072"
     cx="44.885529" /><circle
     style="fill:#efefef;fill-opacity:0.94117647;stroke-width:0.91600001;stroke-miterlimit:10;stroke-dasharray:none"
     id="circle53"
     r="1.8320611"
     cy="141.98474"
     cx="1.8320631" /><circle
     style="fill:#efefef;fill-opacity:0.94117647;stroke-width:0.91600001;stroke-miterlimit:10;stroke-dasharray:none"
     id="circle43"
     r="3.6641221"
     cy="68.702293"
     cx="58.625885" /><circle
     style="fill:#efefef;fill-opacity:0.94117647;stroke-width:0.91600001;stroke-miterlimit:10;stroke-dasharray:none"
     id="circle27"
     r="1.3740458"
     cy="1.3740461"
     cx="116.79385" /><circle
     style="fill:#efefef;fill-opacity:0.94117647;stroke-width:0.91600001;stroke-miterlimit:10;stroke-dasharray:none"
     id="circle25"
     r="2.2900763"
     cy="10.534355"
     cx="150.68704" /><circle
     style="fill:#efefef;fill-opacity:0.94117647;stroke-width:0.91600001;stroke-miterlimit:10;stroke-dasharray:none"
     id="circle29"
     r="1.8320611"
     cy="25.648861"
     cx="183.20609" /><circle
     style="fill:#efefef;fill-opacity:0.94117647;stroke-width:0.91600001;stroke-miterlimit:10;stroke-dasharray:none"
     id="circle41"
     r="2.7480917"
     cy="46.717556"
     cx="135.57254" /><circle
     style="fill:#efefef;fill-opacity:0.94117647;stroke-width:0.91600001;stroke-miterlimit:10;stroke-dasharray:none"
     id="circle31"
     r="1.3740458"
     cy="54.503841"
     cx="199.2366" /><circle
     style="fill:#efefef;fill-opacity:0.94117647;stroke-width:0.91600001;stroke-miterlimit:10;stroke-dasharray:none"
     id="circle33"
     r="1.3740458"
     cy="82.90078"
     cx="222.13736" /><circle
     style="fill:#efefef;fill-opacity:0.94117647;stroke-width:0.91600001;stroke-miterlimit:10;stroke-dasharray:none"
     id="circle35"
     r="3.2061069"
     cy="117.70995"
     cx="220.30533" /><circle
     style="fill:#efefef;fill-opacity:0.94117647;stroke-width:0.91600001;stroke-miterlimit:10;stroke-dasharray:none"
     id="circle37"
     r="5.038168"
     cy="114.96185"
     cx="180.00003" /><circle
     style="fill:#efefef;fill-opacity:0.94117647;stroke-width:0.91600001;stroke-miterlimit:10;stroke-dasharray:none"
     id="circle51"
     r="1.3740458"
     cy="108.54961"
     cx="10.534333" /><circle
     style="fill:#efefef;fill-opacity:0.94117647;stroke-width:0.91600001;stroke-miterlimit:10;stroke-dasharray:none"
     id="circle47"
     r="2.2900763"
     cy="46.259548"
     cx="27.938875" /><circle
     style="fill:#efefef;fill-opacity:0.94117647;stroke-width:0.91600001;stroke-miterlimit:10;stroke-dasharray:none"
     id="circle23"
     r="2.7480917"
     cy="12.824425"
     cx="83.358795" /><circle
     style="fill:#efefef;fill-opacity:0.94117647;stroke-width:0.91600001;stroke-miterlimit:10;stroke-dasharray:none"
     id="circle45"
     r="1.8320611"
     cy="21.068718"
     cx="52.213776" /><circle
     style="fill:#efefef;fill-opacity:0.94117647;stroke-width:0.91600001;stroke-miterlimit:10;stroke-dasharray:none"
     id="circle39"
     r="5.9541984"
     cy="111.29772"
     cx="112.21378" /><circle
     style="fill:#ebebeb;fill-opacity:1;stroke:none;stroke-width:0.91600001;stroke-miterlimit:10;stroke-dasharray:none"
     id="circle177"
     r="0.91603053"
     cy="225.80151"
     cx="109.46561"
     class="st0" /></g>
</svg>