<?xml version="1.0" encoding="UTF-8" standalone="no"?>
<!-- Generator: Adobe Illustrator 24.0.0, SVG Export Plug-In . SVG Version: 6.00 Build 0)  -->

<svg
   xmlns:dc="http://purl.org/dc/elements/1.1/"
   xmlns:cc="http://creativecommons.org/ns#"
   xmlns:rdf="http://www.w3.org/1999/02/22-rdf-syntax-ns#"
   xmlns:svg="http://www.w3.org/2000/svg"
   xmlns="http://www.w3.org/2000/svg"
   xmlns:sodipodi="http://sodipodi.sourceforge.net/DTD/sodipodi-0.dtd"
   xmlns:inkscape="http://www.inkscape.org/namespaces/inkscape"
   version="1.1"
   id="Layer_1"
   x="0px"
   y="0px"
   viewBox="0 0 876.24036 226.71754"
   xml:space="preserve"
   sodipodi:docname="logo-test.svg"
   width="876.24036"
   height="226.71754"
   inkscape:version="0.92.3 (2405546, 2018-03-11)"><metadata
   id="metadata200"><rdf:RDF><cc:Work
       rdf:about=""><dc:format>image/svg+xml</dc:format><dc:type
         rdf:resource="http://purl.org/dc/dcmitype/StillImage" /><dc:title /></cc:Work></rdf:RDF></metadata><defs
   id="defs198">
			
	</defs><sodipodi:namedview
   pagecolor="#ffffff"
   bordercolor="#666666"
   borderopacity="1"
   objecttolerance="10"
   gridtolerance="10"
   guidetolerance="10"
   inkscape:pageopacity="0"
   inkscape:pageshadow="2"
   inkscape:window-width="1319"
   inkscape:window-height="713"
   id="namedview196"
   showgrid="false"
   fit-margin-top="0"
   fit-margin-left="0"
   fit-margin-right="0"
   fit-margin-bottom="0"
   inkscape:zoom="0.39709445"
   inkscape:cx="89.258937"
   inkscape:cy="89.594574"
   inkscape:window-x="47"
   inkscape:window-y="27"
   inkscape:window-maximized="1"
   inkscape:current-layer="Layer_1"
   inkscape:snap-global="true"
   inkscape:snap-bbox="true"
   inkscape:bbox-paths="true"
   showguides="true"
   inkscape:guide-bbox="true" />
<style
   type="text/css"
   id="style2">
	.st0{fill:none;stroke:#000000;stroke-miterlimit:10;}
	.st1{fill:none;}
	.st2{stroke:#000000;stroke-miterlimit:10;}
</style>

<g
   aria-label="CREATIVES"
   style="font-style:normal;font-variant:normal;font-weight:normal;font-stretch:normal;font-size:40px;line-height:1.25;font-family:'Source Sans Pro';-inkscape-font-specification:'Source Sans Pro';letter-spacing:0px;word-spacing:0px;fill:#f5f5f5;fill-opacity:1;stroke:none;stroke-width:1"
   id="text930"
   transform="translate(39.999998)"><path
     d="m 314.87631,128.84678 -3.66934,-2.048 c -7.424,11.09333 -17.152,12.62933 -21.07733,12.62933 -8.53333,0 -21.33333,-6.656 -21.33333,-25.856 0,-15.103998 8.36266,-26.282665 19.62666,-26.282665 13.14134,0 17.408,9.045333 21.93067,18.346665 h 2.73067 l -4.096,-20.565332 h -2.816 l -1.792,3.584 c -5.03467,-3.84 -10.24,-5.461333 -17.57867,-5.461333 -11.34933,0 -28.07467,10.410667 -28.07467,30.464005 0,17.06666 12.88534,29.86666 30.12267,29.86666 11.008,0 19.712,-4.864 26.02667,-14.67733 z"
     style="font-style:normal;font-variant:normal;font-weight:normal;font-stretch:normal;font-size:85.33333588px;font-family:'TeX Gyre Bonum Math';-inkscape-font-specification:'TeX Gyre Bonum Math';letter-spacing:10px;fill:#f5f5f5;fill-opacity:1;stroke-width:1"
     id="path1329"
     inkscape:connector-curvature="0" /><path
     d="m 392.73631,142.41478 v -2.64533 c -4.18133,-0.768 -6.48533,-2.13334 -9.13066,-5.54667 l -14.16534,-20.05333 c 14.08,-2.048 15.78667,-10.92267 15.78667,-15.189338 0,-9.130667 -7.424,-14.677334 -19.712,-14.677334 h -34.73067 v 2.645333 l 2.13333,0.256 c 4.43734,0.597334 5.54667,2.389334 5.54667,9.386667 v 33.536002 c 0,6.99733 -1.10933,8.78933 -5.54667,9.38667 l -2.13333,0.256 v 2.64533 h 24.832 v -2.64533 l -3.072,-0.256 c -4.352,-0.42667 -5.54667,-2.47467 -5.54667,-9.38667 v -15.104 h 12.288 l 19.20001,27.392 z M 376.01098,99.321445 c 0,4.010665 -1.62133,12.032005 -14.67734,12.032005 h -14.336 V 92.836112 c 0,-2.986667 1.62134,-5.034667 12.62934,-5.034667 10.92266,0 16.384,3.84 16.384,11.52 z"
     style="font-style:normal;font-variant:normal;font-weight:normal;font-stretch:normal;font-size:85.33333588px;font-family:'TeX Gyre Bonum Math';-inkscape-font-specification:'TeX Gyre Bonum Math';letter-spacing:10px;fill:#f5f5f5;fill-opacity:1;stroke-width:1"
     id="path1331"
     inkscape:connector-curvature="0" /><path
     d="m 459.79898,124.23878 -2.64533,-1.19467 c -9.30134,11.94667 -16.29867,15.70134 -29.01334,15.70134 -8.10667,0 -9.64267,-2.304 -9.64267,-7.50934 v -18.00533 h 6.31467 c 6.74133,0 9.64267,2.98667 10.496,11.008 h 2.90133 V 98.724112 h -2.90133 c -1.19467,8.874668 -3.072,10.837338 -10.32533,10.837338 h -6.48534 V 95.054778 c 0,-5.461333 2.21867,-7.082667 9.728,-7.082667 11.60534,0 18.09067,3.242667 25.94134,12.799999 l 2.73067,-1.109332 -5.888,-15.36 h -48.72534 v 2.645333 l 2.13333,0.256 c 4.43734,0.597334 5.54667,2.389334 5.54667,9.386667 v 33.536002 c 0,6.99733 -1.10933,8.78933 -5.54667,9.38667 l -2.13333,0.256 v 2.64533 h 49.74934 z"
     style="font-style:normal;font-variant:normal;font-weight:normal;font-stretch:normal;font-size:85.33333588px;font-family:'TeX Gyre Bonum Math';-inkscape-font-specification:'TeX Gyre Bonum Math';letter-spacing:10px;fill:#f5f5f5;fill-opacity:1;stroke-width:1"
     id="path1333"
     inkscape:connector-curvature="0" /><path
     d="m 532.06698,142.41478 v -2.64533 c -5.54667,-0.85334 -6.57067,-1.792 -9.64267,-9.728 L 504.33364,84.302778 h -7.936 l -14.67733,37.632002 c -5.71733,14.592 -7.08267,16.55467 -12.8,17.664 l -0.93867,0.17067 v 2.64533 h 22.86934 v -2.64533 c -3.072,-0.42667 -4.52267,-0.768 -5.46134,-1.36534 -3.072,-2.048 -2.38933,-5.46133 -0.512,-10.24 l 2.73067,-7.33866 h 22.016 l 4.26667,11.008 c 1.87733,5.29066 1.28,6.912 -5.80267,7.936 v 2.64533 z m -23.97867,-25.25867 h -19.2 l 9.472,-25.599999 z"
     style="font-style:normal;font-variant:normal;font-weight:normal;font-stretch:normal;font-size:85.33333588px;font-family:'TeX Gyre Bonum Math';-inkscape-font-specification:'TeX Gyre Bonum Math';letter-spacing:10px;fill:#f5f5f5;fill-opacity:1;stroke-width:1"
     id="path1335"
     inkscape:connector-curvature="0" /><path
     d="m 595.11763,99.321445 -4.77867,-15.018667 h -49.49333 l -4.864,15.018667 2.816,1.024005 c 5.03467,-8.874672 10.92267,-12.800005 18.77333,-12.800005 2.816,0 3.75467,0.853333 3.75467,3.413333 v 39.168002 c 0,6.912 -1.28,9.04533 -5.54667,9.38667 l -3.328,0.256 v 2.64533 h 26.28267 v -2.64533 l -3.328,-0.256 c -4.26667,-0.34134 -5.54667,-2.47467 -5.54667,-9.38667 V 91.300111 c 0,-2.986666 0.68267,-3.754666 3.49867,-3.754666 7.50933,0 13.99467,4.437333 18.77333,12.800005 z"
     style="font-style:normal;font-variant:normal;font-weight:normal;font-stretch:normal;font-size:85.33333588px;font-family:'TeX Gyre Bonum Math';-inkscape-font-specification:'TeX Gyre Bonum Math';letter-spacing:10px;fill:#f5f5f5;fill-opacity:1;stroke-width:1"
     id="path1337"
     inkscape:connector-curvature="0" /><path
     d="m 627.65764,142.41478 v -2.64533 l -1.70667,-0.256 c -4.608,-0.768 -5.54666,-2.304 -5.54666,-9.38667 V 96.590778 c 0,-7.082667 0.93866,-8.618667 5.54666,-9.386667 l 1.70667,-0.256 v -2.645333 h -23.04 v 2.645333 l 1.70667,0.256 c 4.608,0.768 5.54666,2.304 5.54666,9.386667 v 33.536002 c 0,7.08267 -0.93866,8.61867 -5.54666,9.38667 l -1.70667,0.256 v 2.64533 z"
     style="font-style:normal;font-variant:normal;font-weight:normal;font-stretch:normal;font-size:85.33333588px;font-family:'TeX Gyre Bonum Math';-inkscape-font-specification:'TeX Gyre Bonum Math';letter-spacing:10px;fill:#f5f5f5;fill-opacity:1;stroke-width:1"
     id="path1339"
     inkscape:connector-curvature="0" /><path
     d="m 702.83897,86.948111 v -2.645333 h -22.784 v 2.645333 c 7.424,0.341334 9.13067,3.413334 6.99734,8.789334 L 672.37497,132.94278 657.35631,94.201445 c -2.47467,-6.4 1.45066,-7.082667 6.57066,-7.253334 v -2.645333 h -25.51466 v 2.645333 l 0.85333,0.170667 c 4.94933,0.597333 6.4,1.962667 9.216,8.704 l 19.2,46.592002 h 5.12 l 18.688,-45.312002 c 3.584,-8.362667 4.864,-9.472 11.34933,-10.154667 z"
     style="font-style:normal;font-variant:normal;font-weight:normal;font-stretch:normal;font-size:85.33333588px;font-family:'TeX Gyre Bonum Math';-inkscape-font-specification:'TeX Gyre Bonum Math';letter-spacing:10px;fill:#f5f5f5;fill-opacity:1;stroke-width:1"
     id="path1341"
     inkscape:connector-curvature="0" /><path
     d="m 770.79899,124.23878 -2.64533,-1.19467 c -9.30133,11.94667 -16.29867,15.70134 -29.01333,15.70134 -8.10667,0 -9.64267,-2.304 -9.64267,-7.50934 v -18.00533 h 6.31467 c 6.74133,0 9.64266,2.98667 10.496,11.008 h 2.90133 V 98.724112 h -2.90133 c -1.19467,8.874668 -3.072,10.837338 -10.32534,10.837338 h -6.48533 V 95.054778 c 0,-5.461333 2.21867,-7.082667 9.728,-7.082667 11.60533,0 18.09067,3.242667 25.94133,12.799999 l 2.73067,-1.109332 -5.888,-15.36 h -48.72533 v 2.645333 l 2.13333,0.256 c 4.43733,0.597334 5.54667,2.389334 5.54667,9.386667 v 33.536002 c 0,6.99733 -1.10934,8.78933 -5.54667,9.38667 l -2.13333,0.256 v 2.64533 h 49.74933 z"
     style="font-style:normal;font-variant:normal;font-weight:normal;font-stretch:normal;font-size:85.33333588px;font-family:'TeX Gyre Bonum Math';-inkscape-font-specification:'TeX Gyre Bonum Math';letter-spacing:10px;fill:#f5f5f5;fill-opacity:1;stroke-width:1"
     id="path1343"
     inkscape:connector-curvature="0" /><path
     d="m 836.24033,125.17745 c 0,-10.15467 -5.97334,-13.99467 -18.09067,-16.896 l -10.66667,-2.56 c -8.27733,-2.048 -11.60533,-4.69334 -11.60533,-9.301338 0,-5.120001 5.46133,-9.130667 12.544,-9.130667 8.192,0 15.01867,4.352 20.992,13.482665 l 2.73067,-1.023998 -5.20534,-15.445334 h -3.072 l -1.024,3.072 c -4.77866,-2.901333 -9.64266,-4.181333 -16.128,-4.181333 -14.25066,0 -19.54133,9.216 -19.54133,15.274667 0,11.519998 13.312,14.506668 17.57867,15.615998 l 11.43466,2.90134 c 8.448,2.048 11.34934,4.608 11.34934,9.728 0,7.25333 -6.656,12.71466 -15.44534,12.71466 -9.81333,0 -18.432,-6.144 -24.40533,-17.57866 l -3.15733,1.024 5.54666,19.54133 h 3.15734 l 1.62133,-4.26667 c 5.20533,3.66934 10.83733,5.376 17.664,5.376 13.312,0 23.72267,-8.10666 23.72267,-18.34666 z"
     style="font-style:normal;font-variant:normal;font-weight:normal;font-stretch:normal;font-size:85.33333588px;font-family:'TeX Gyre Bonum Math';-inkscape-font-specification:'TeX Gyre Bonum Math';letter-spacing:10px;fill:#f5f5f5;fill-opacity:1;stroke-width:1"
     id="path1345"
     inkscape:connector-curvature="0" /></g>

<g
   id="g1026"
   transform="translate(-184.12213,-40.719456)"><circle
     style="fill:#efefef;fill-opacity:0.94117647;stroke-width:0.91600001;stroke-miterlimit:10;stroke-dasharray:none"
     id="circle49"
     r="1.3740458"
     cy="116.29199"
     cx="191.90842" /><line
     style="stroke:#ababab;stroke-width:0.91600001;stroke-miterlimit:10;stroke-dasharray:none;stroke-opacity:1"
     id="line73"
     y2="95.223297"
     x2="383.35873"
     y1="66.826324"
     x1="367.78622"
     class="st2" /><line
     style="fill:none;stroke:#ababab;stroke-width:0.91600001;stroke-miterlimit:10;stroke-dasharray:none;stroke-opacity:1"
     id="line75"
     y2="123.62024"
     x2="406.25949"
     y1="65.910309"
     x1="367.78622"
     class="st0" /><line
     style="fill:none;stroke:#ababab;stroke-width:0.91600001;stroke-miterlimit:10;stroke-dasharray:none;stroke-opacity:1"
     id="line77"
     y2="95.223297"
     x2="383.35873"
     y1="123.62024"
     x1="406.25949"
     class="st0" /><line
     style="fill:none;stroke:#ababab;stroke-width:0.91600001;stroke-miterlimit:10;stroke-dasharray:none;stroke-opacity:1"
     id="line79"
     y2="95.223297"
     x2="383.35873"
     y1="87.89505"
     x1="319.23666"
     class="st0" /><line
     style="fill:none;stroke:#ababab;stroke-width:0.91600001;stroke-miterlimit:10;stroke-dasharray:none;stroke-opacity:1"
     id="line81"
     y2="51.253811"
     x2="334.80917"
     y1="86.979004"
     x1="319.23666"
     class="st0" /><line
     style="fill:none;stroke:#ababab;stroke-width:0.91600001;stroke-miterlimit:10;stroke-dasharray:none;stroke-opacity:1"
     id="line83"
     y2="51.253811"
     x2="334.80917"
     y1="65.910309"
     x1="366.87021"
     class="st0" /><line
     style="fill:none;stroke:#ababab;stroke-width:0.91600001;stroke-miterlimit:10;stroke-dasharray:none;stroke-opacity:1"
     id="line85"
     y2="95.223297"
     x2="383.35873"
     y1="52.169857"
     x1="334.80917"
     class="st0" /><line
     style="fill:none;stroke:#ababab;stroke-width:0.91600001;stroke-miterlimit:10;stroke-dasharray:none;stroke-opacity:1"
     id="line87"
     y2="95.223297"
     x2="383.35873"
     y1="155.6813"
     x1="364.12216"
     class="st0" /><line
     style="fill:none;stroke:#ababab;stroke-width:0.91600001;stroke-miterlimit:10;stroke-dasharray:none;stroke-opacity:1"
     id="line89"
     y2="123.62024"
     x2="406.25949"
     y1="158.42941"
     x1="404.42746"
     class="st0" /><line
     style="fill:none;stroke:#ababab;stroke-width:0.91600001;stroke-miterlimit:10;stroke-dasharray:none;stroke-opacity:1"
     id="line91"
     y2="155.6813"
     x2="364.12216"
     y1="158.42941"
     x1="404.42746"
     class="st0" /><line
     style="fill:none;stroke:#ababab;stroke-width:0.91600001;stroke-miterlimit:10;stroke-dasharray:none;stroke-opacity:1"
     id="line93"
     y2="95.223297"
     x2="383.35873"
     y1="159.34543"
     x1="405.34348"
     class="st0" /><line
     style="fill:none;stroke:#ababab;stroke-width:0.91600001;stroke-miterlimit:10;stroke-dasharray:none;stroke-opacity:1"
     id="line95"
     y2="195.98666"
     x2="402.59543"
     y1="158.42941"
     x1="403.51144"
     class="st0" /><line
     style="fill:none;stroke:#ababab;stroke-width:0.91600001;stroke-miterlimit:10;stroke-dasharray:none;stroke-opacity:1"
     id="line97"
     y2="217.97141"
     x2="377.86252"
     y1="195.98666"
     x1="401.67941"
     class="st0" /><line
     style="fill:none;stroke:#ababab;stroke-width:0.91600001;stroke-miterlimit:10;stroke-dasharray:none;stroke-opacity:1"
     id="line99"
     y2="217.97141"
     x2="377.86252"
     y1="156.59732"
     x1="364.12216"
     class="st0" /><line
     style="fill:none;stroke:#ababab;stroke-width:0.91600001;stroke-miterlimit:10;stroke-dasharray:none;stroke-opacity:1"
     id="line101"
     y2="158.42941"
     x2="404.42746"
     y1="217.05533"
     x1="377.86252"
     class="st0" /><line
     style="fill:none;stroke:#ababab;stroke-width:0.91600001;stroke-miterlimit:10;stroke-dasharray:none;stroke-opacity:1"
     id="line103"
     y2="247.28433"
     x2="360.45798"
     y1="195.98666"
     x1="401.67941"
     class="st0" /><circle
     style="fill:#efefef;fill-opacity:0.94117647;stroke-width:0.91600001;stroke-miterlimit:10;stroke-dasharray:none"
     id="circle71"
     r="1.8320611"
     cy="195.52866"
     cx="402.13742" /><line
     style="fill:none;stroke:#ababab;stroke-width:0.91600001;stroke-miterlimit:10;stroke-dasharray:none;stroke-opacity:1"
     id="line105"
     y2="247.28433"
     x2="360.45798"
     y1="257.36069"
     x1="326.56491"
     class="st0" /><line
     style="fill:none;stroke:#ababab;stroke-width:0.91600001;stroke-miterlimit:10;stroke-dasharray:none;stroke-opacity:1"
     id="line107"
     y2="217.97141"
     x2="377.86252"
     y1="256.44467"
     x1="326.56491"
     class="st0" /><circle
     style="fill:#efefef;fill-opacity:0.94117647;stroke-width:0.91600001;stroke-miterlimit:10;stroke-dasharray:none"
     id="circle67"
     r="2.2900763"
     cy="247.28433"
     cx="360.45798" /><line
     style="fill:none;stroke:#ababab;stroke-width:0.91600001;stroke-miterlimit:10;stroke-dasharray:none;stroke-opacity:1"
     id="line109"
     y2="217.05533"
     x2="377.86252"
     y1="217.05533"
     x1="313.74045"
     class="st0" /><circle
     style="fill:#efefef;fill-opacity:0.94117647;stroke-width:0.91600001;stroke-miterlimit:10;stroke-dasharray:none"
     id="circle69"
     r="1.8320611"
     cy="217.51334"
     cx="378.32053" /><line
     style="fill:none;stroke:#ababab;stroke-width:0.91600001;stroke-miterlimit:10;stroke-dasharray:none;stroke-opacity:1"
     id="line111"
     y2="257.36069"
     x2="326.56491"
     y1="217.97141"
     x1="313.74045"
     class="st0" /><line
     style="fill:none;stroke:#ababab;stroke-width:0.91600001;stroke-miterlimit:10;stroke-dasharray:none;stroke-opacity:1"
     id="line113"
     y2="217.05533"
     x2="314.65646"
     y1="155.6813"
     x1="364.12216"
     class="st0" /><line
     style="fill:none;stroke:#ababab;stroke-width:0.91600001;stroke-miterlimit:10;stroke-dasharray:none;stroke-opacity:1"
     id="line115"
     y2="152.01718"
     x2="296.33591"
     y1="216.13931"
     x1="313.74045"
     class="st0" /><line
     style="fill:none;stroke:#ababab;stroke-width:0.91600001;stroke-miterlimit:10;stroke-dasharray:none;stroke-opacity:1"
     id="line117"
     y2="155.6813"
     x2="364.12216"
     y1="152.01718"
     x1="297.25192"
     class="st0" /><line
     style="fill:none;stroke:#ababab;stroke-width:0.91600001;stroke-miterlimit:10;stroke-dasharray:none;stroke-opacity:1"
     id="line119"
     y2="152.01718"
     x2="297.25192"
     y1="189.57443"
     x1="239.54196"
     class="st0" /><line
     style="fill:none;stroke:#ababab;stroke-width:0.91600001;stroke-miterlimit:10;stroke-dasharray:none;stroke-opacity:1"
     id="line121"
     y2="217.05533"
     x2="314.65646"
     y1="189.57443"
     x1="239.54196"
     class="st0" /><line
     style="fill:none;stroke:#ababab;stroke-width:0.91600001;stroke-miterlimit:10;stroke-dasharray:none;stroke-opacity:1"
     id="line123"
     y2="189.57443"
     x2="239.54196"
     y1="249.11642"
     x1="260.61069"
     class="st0" /><line
     style="fill:none;stroke:#ababab;stroke-width:0.91600001;stroke-miterlimit:10;stroke-dasharray:none;stroke-opacity:1"
     id="line125"
     y2="189.57443"
     x2="239.54196"
     y1="212.47519"
     x1="209.31296"
     class="st0" /><line
     style="fill:none;stroke:#ababab;stroke-width:0.91600001;stroke-miterlimit:10;stroke-dasharray:none;stroke-opacity:1"
     id="line127"
     y2="249.11642"
     x2="260.61069"
     y1="213.3912"
     x1="209.31296"
     class="st0" /><line
     style="fill:none;stroke:#ababab;stroke-width:0.91600001;stroke-miterlimit:10;stroke-dasharray:none;stroke-opacity:1"
     id="line129"
     y2="241.78818"
     x2="229.46567"
     y1="213.3912"
     x1="208.39694"
     class="st0" /><line
     style="fill:none;stroke:#ababab;stroke-width:0.91600001;stroke-miterlimit:10;stroke-dasharray:none;stroke-opacity:1"
     id="line131"
     y2="250.03244"
     x2="260.61069"
     y1="257.36069"
     x1="327.48093"
     class="st0" /><line
     style="fill:none;stroke:#ababab;stroke-width:0.91600001;stroke-miterlimit:10;stroke-dasharray:none;stroke-opacity:1"
     id="line133"
     y2="241.78818"
     x2="229.46567"
     y1="249.11642"
     x1="260.61069"
     class="st0" /><line
     style="fill:none;stroke:#ababab;stroke-width:0.91600001;stroke-miterlimit:10;stroke-dasharray:none;stroke-opacity:1"
     id="line135"
     y2="249.11642"
     x2="260.61069"
     y1="217.05533"
     x1="313.74045"
     class="st0" /><circle
     style="fill:#efefef;fill-opacity:0.94117647;stroke-width:0.91600001;stroke-miterlimit:10;stroke-dasharray:none"
     id="circle65"
     r="3.6641221"
     cy="217.51334"
     cx="314.19846" /><line
     style="fill:none;stroke:#ababab;stroke-width:0.91600001;stroke-miterlimit:10;stroke-dasharray:none;stroke-opacity:1"
     id="line137"
     y2="152.01718"
     x2="296.33591"
     y1="109.87976"
     x1="243.20602"
     class="st0" /><line
     style="fill:none;stroke:#ababab;stroke-width:0.91600001;stroke-miterlimit:10;stroke-dasharray:none;stroke-opacity:1"
     id="line139"
     y2="189.57443"
     x2="239.54196"
     y1="108.96375"
     x1="243.20602"
     class="st0" /><line
     style="fill:none;stroke:#ababab;stroke-width:0.91600001;stroke-miterlimit:10;stroke-dasharray:none;stroke-opacity:1"
     id="line141"
     y2="189.57443"
     x2="239.54196"
     y1="149.26907"
     x1="194.65646"
     class="st0" /><circle
     style="fill:#efefef;fill-opacity:0.94117647;stroke-width:0.91600001;stroke-miterlimit:10;stroke-dasharray:none"
     id="circle55"
     r="2.2900763"
     cy="189.57443"
     cx="239.54196" /><line
     style="fill:none;stroke:#ababab;stroke-width:0.91600001;stroke-miterlimit:10;stroke-dasharray:none;stroke-opacity:1"
     id="line143"
     y2="149.26907"
     x2="194.65646"
     y1="212.47519"
     x1="209.31296"
     class="st0" /><line
     style="fill:none;stroke:#ababab;stroke-width:0.91600001;stroke-miterlimit:10;stroke-dasharray:none;stroke-opacity:1"
     id="line145"
     y2="183.1622"
     x2="186.4122"
     y1="214.30728"
     x1="209.31296"
     class="st0" /><circle
     style="fill:#efefef;fill-opacity:0.94117647;stroke-width:0.91600001;stroke-miterlimit:10;stroke-dasharray:none"
     id="circle57"
     r="3.6641221"
     cy="212.9332"
     cx="208.85495" /><line
     style="fill:none;stroke:#ababab;stroke-width:0.91600001;stroke-miterlimit:10;stroke-dasharray:none;stroke-opacity:1"
     id="line147"
     y2="183.1622"
     x2="185.49619"
     y1="116.29199"
     x1="191.90842"
     class="st0" /><line
     style="fill:none;stroke:#ababab;stroke-width:0.91600001;stroke-miterlimit:10;stroke-dasharray:none;stroke-opacity:1"
     id="line149"
     y2="149.26907"
     x2="195.57248"
     y1="109.87976"
     x1="242.29001"
     class="st0" /><line
     style="fill:none;stroke:#ababab;stroke-width:0.91600001;stroke-miterlimit:10;stroke-dasharray:none;stroke-opacity:1"
     id="line151"
     y2="116.29199"
     x2="191.90842"
     y1="86.979004"
     x1="212.061"
     class="st0" /><line
     style="fill:none;stroke:#ababab;stroke-width:0.91600001;stroke-miterlimit:10;stroke-dasharray:none;stroke-opacity:1"
     id="line153"
     y2="86.979004"
     x2="212.061"
     y1="108.96375"
     x1="242.29001"
     class="st0" /><line
     style="fill:none;stroke:#ababab;stroke-width:0.91600001;stroke-miterlimit:10;stroke-dasharray:none;stroke-opacity:1"
     id="line155"
     y2="86.979004"
     x2="212.061"
     y1="61.330135"
     x1="236.79391"
     class="st0" /><line
     style="fill:none;stroke:#ababab;stroke-width:0.91600001;stroke-miterlimit:10;stroke-dasharray:none;stroke-opacity:1"
     id="line157"
     y2="86.979004"
     x2="212.061"
     y1="53.085873"
     x1="267.93893"
     class="st0" /><line
     style="fill:none;stroke:#ababab;stroke-width:0.91600001;stroke-miterlimit:10;stroke-dasharray:none;stroke-opacity:1"
     id="line159"
     y2="54.001919"
     x2="267.02292"
     y1="62.246181"
     x1="235.87778"
     class="st0" /><line
     style="fill:none;stroke:#ababab;stroke-width:0.91600001;stroke-miterlimit:10;stroke-dasharray:none;stroke-opacity:1"
     id="line161"
     y2="53.085873"
     x2="267.93893"
     y1="109.87976"
     x1="243.20602"
     class="st0" /><line
     style="fill:none;stroke:#ababab;stroke-width:0.91600001;stroke-miterlimit:10;stroke-dasharray:none;stroke-opacity:1"
     id="line163"
     y2="53.085873"
     x2="267.93893"
     y1="86.979004"
     x1="319.23666"
     class="st0" /><line
     style="fill:none;stroke:#ababab;stroke-width:0.91600001;stroke-miterlimit:10;stroke-dasharray:none;stroke-opacity:1"
     id="line165"
     y2="86.979004"
     x2="320.15268"
     y1="109.87976"
     x1="243.20602"
     class="st0" /><line
     style="fill:none;stroke:#ababab;stroke-width:0.91600001;stroke-miterlimit:10;stroke-dasharray:none;stroke-opacity:1"
     id="line167"
     y2="86.979004"
     x2="320.15268"
     y1="150.18509"
     x1="297.25192"
     class="st0" /><line
     style="fill:none;stroke:#ababab;stroke-width:0.91600001;stroke-miterlimit:10;stroke-dasharray:none;stroke-opacity:1"
     id="line169"
     y2="86.979004"
     x2="319.23666"
     y1="155.6813"
     x1="364.12216"
     class="st0" /><line
     style="fill:none;stroke:#ababab;stroke-width:0.91600001;stroke-miterlimit:10;stroke-dasharray:none;stroke-opacity:1"
     id="line171"
     y2="53.085873"
     x2="267.93893"
     y1="51.253811"
     x1="334.80917"
     class="st0" /><line
     style="fill:none;stroke:#ababab;stroke-width:0.91600001;stroke-miterlimit:10;stroke-dasharray:none;stroke-opacity:1"
     id="line173"
     y2="53.085873"
     x2="267.93893"
     y1="42.093502"
     x1="300.91599"
     class="st0" /><line
     style="fill:none;stroke:#ababab;stroke-width:0.91600001;stroke-miterlimit:10;stroke-dasharray:none;stroke-opacity:1"
     id="line175"
     y2="42.093502"
     x2="300.91599"
     y1="51.253811"
     x1="334.80917"
     class="st0" /><line
     style="fill:none;stroke:#ababab;stroke-width:0.91600001;stroke-miterlimit:10;stroke-dasharray:none;stroke-opacity:1"
     id="line179"
     y2="266.52097"
     x2="293.58774"
     y1="257.36069"
     x1="326.56491"
     class="st0" /><circle
     style="fill:#efefef;fill-opacity:0.94117647;stroke-width:0.91600001;stroke-miterlimit:10;stroke-dasharray:none"
     id="circle63"
     r="5.4961834"
     cy="256.90268"
     cx="327.02292" /><line
     style="fill:none;stroke:#ababab;stroke-width:0.91600001;stroke-miterlimit:10;stroke-dasharray:none;stroke-opacity:1"
     id="line181"
     y2="266.52097"
     x2="293.58774"
     y1="249.11642"
     x1="260.61069"
     class="st0" /><line
     style="fill:none;stroke:#ababab;stroke-width:0.91600001;stroke-miterlimit:10;stroke-dasharray:none;stroke-opacity:1"
     id="line183"
     y2="266.52097"
     x2="293.58774"
     y1="241.78818"
     x1="229.46567"
     class="st0" /><circle
     style="fill:#efefef;fill-opacity:0.94117647;stroke-width:0.91600001;stroke-miterlimit:10;stroke-dasharray:none"
     id="circle61"
     r="2.2900763"
     cy="249.11642"
     cx="260.61069" /><circle
     style="fill:#efefef;fill-opacity:0.94117647;stroke-width:0.91600001;stroke-miterlimit:10;stroke-dasharray:none"
     id="circle59"
     r="1.8320611"
     cy="241.33017"
     cx="229.00766" /><line
     style="fill:none;stroke:#ababab;stroke-width:0.91600001;stroke-miterlimit:10;stroke-dasharray:none;stroke-opacity:1"
     id="line185"
     y2="149.26907"
     x2="194.65646"
     y1="116.29199"
     x1="191.90842"
     class="st0" /><line
     style="fill:none;stroke:#ababab;stroke-width:0.91600001;stroke-miterlimit:10;stroke-dasharray:none;stroke-opacity:1"
     id="line187"
     y2="149.26907"
     x2="194.65646"
     y1="182.24619"
     x1="186.4122"
     class="st0" /><circle
     style="fill:#efefef;fill-opacity:0.94117647;stroke-width:0.91600001;stroke-miterlimit:10;stroke-dasharray:none"
     id="circle53"
     r="1.8320611"
     cy="182.70419"
     cx="185.95419" /><line
     style="fill:none;stroke:#ababab;stroke-width:0.91600001;stroke-miterlimit:10;stroke-dasharray:none;stroke-opacity:1"
     id="line189"
     y2="149.26907"
     x2="194.65646"
     y1="86.979004"
     x1="212.061"
     class="st0" /><circle
     style="fill:#efefef;fill-opacity:0.94117647;stroke-width:0.91600001;stroke-miterlimit:10;stroke-dasharray:none"
     id="circle43"
     r="3.6641221"
     cy="109.42175"
     cx="242.74802" /><circle
     style="fill:#efefef;fill-opacity:0.94117647;stroke-width:0.91600001;stroke-miterlimit:10;stroke-dasharray:none"
     id="circle27"
     r="1.3740458"
     cy="42.093502"
     cx="300.91599" /><circle
     style="fill:#efefef;fill-opacity:0.94117647;stroke-width:0.91600001;stroke-miterlimit:10;stroke-dasharray:none"
     id="circle25"
     r="2.2900763"
     cy="51.253811"
     cx="334.80917" /><circle
     style="fill:#efefef;fill-opacity:0.94117647;stroke-width:0.91600001;stroke-miterlimit:10;stroke-dasharray:none"
     id="circle29"
     r="1.8320611"
     cy="66.368317"
     cx="367.32822" /><circle
     style="fill:#efefef;fill-opacity:0.94117647;stroke-width:0.91600001;stroke-miterlimit:10;stroke-dasharray:none"
     id="circle41"
     r="2.7480917"
     cy="87.437012"
     cx="319.69467" /><circle
     style="fill:#efefef;fill-opacity:0.94117647;stroke-width:0.91600001;stroke-miterlimit:10;stroke-dasharray:none"
     id="circle31"
     r="1.3740458"
     cy="95.223297"
     cx="383.35873" /><circle
     style="fill:#efefef;fill-opacity:0.94117647;stroke-width:0.91600001;stroke-miterlimit:10;stroke-dasharray:none"
     id="circle33"
     r="1.3740458"
     cy="123.62024"
     cx="406.25949" /><circle
     style="fill:#efefef;fill-opacity:0.94117647;stroke-width:0.91600001;stroke-miterlimit:10;stroke-dasharray:none"
     id="circle35"
     r="3.2061069"
     cy="158.42941"
     cx="404.42746" /><circle
     style="fill:#efefef;fill-opacity:0.94117647;stroke-width:0.91600001;stroke-miterlimit:10;stroke-dasharray:none"
     id="circle37"
     r="5.038168"
     cy="155.6813"
     cx="364.12216" /><circle
     style="fill:#efefef;fill-opacity:0.94117647;stroke-width:0.91600001;stroke-miterlimit:10;stroke-dasharray:none"
     id="circle51"
     r="1.3740458"
     cy="149.26907"
     cx="194.65646" /><circle
     style="fill:#efefef;fill-opacity:0.94117647;stroke-width:0.91600001;stroke-miterlimit:10;stroke-dasharray:none"
     id="circle47"
     r="2.2900763"
     cy="86.979004"
     cx="212.061" /><circle
     style="fill:#efefef;fill-opacity:0.94117647;stroke-width:0.91600001;stroke-miterlimit:10;stroke-dasharray:none"
     id="circle23"
     r="2.7480917"
     cy="53.54388"
     cx="267.48093" /><circle
     style="fill:#efefef;fill-opacity:0.94117647;stroke-width:0.91600001;stroke-miterlimit:10;stroke-dasharray:none"
     id="circle45"
     r="1.8320611"
     cy="61.788174"
     cx="236.33591" /><circle
     style="fill:#efefef;fill-opacity:0.94117647;stroke-width:0.91600001;stroke-miterlimit:10;stroke-dasharray:none"
     id="circle39"
     r="5.9541984"
     cy="152.01718"
     cx="296.33591" /><circle
     style="fill:#ebebeb;fill-opacity:1;stroke:none;stroke-width:0.91600001;stroke-miterlimit:10;stroke-dasharray:none"
     id="circle177"
     r="0.91603053"
     cy="266.52097"
     cx="293.58774"
     class="st0" /></g>
</svg>