<?xml version="1.0" encoding="UTF-8" standalone="no"?>
<!-- Generator: Adobe Illustrator 24.0.0, SVG Export Plug-In . SVG Version: 6.00 Build 0)  -->

<svg
   xmlns:dc="http://purl.org/dc/elements/1.1/"
   xmlns:cc="http://creativecommons.org/ns#"
   xmlns:rdf="http://www.w3.org/1999/02/22-rdf-syntax-ns#"
   xmlns:svg="http://www.w3.org/2000/svg"
   xmlns="http://www.w3.org/2000/svg"
   xmlns:sodipodi="http://sodipodi.sourceforge.net/DTD/sodipodi-0.dtd"
   xmlns:inkscape="http://www.inkscape.org/namespaces/inkscape"
   version="1.1"
   id="Layer_1"
   x="0px"
   y="0px"
   viewBox="0 0 876.24036 226.71754"
   xml:space="preserve"
   sodipodi:docname="logo.svg"
   width="876.24036"
   height="226.71754"
   inkscape:version="0.92.3 (2405546, 2018-03-11)"><metadata
   id="metadata200"><rdf:RDF><cc:Work
       rdf:about=""><dc:format>image/svg+xml</dc:format><dc:type
         rdf:resource="http://purl.org/dc/dcmitype/StillImage" /><dc:title /></cc:Work></rdf:RDF></metadata><defs
   id="defs198">
			
	</defs><sodipodi:namedview
   pagecolor="#ffffff"
   bordercolor="#666666"
   borderopacity="1"
   objecttolerance="10"
   gridtolerance="10"
   guidetolerance="10"
   inkscape:pageopacity="0"
   inkscape:pageshadow="2"
   inkscape:window-width="1319"
   inkscape:window-height="713"
   id="namedview196"
   showgrid="false"
   fit-margin-top="0"
   fit-margin-left="0"
   fit-margin-right="0"
   fit-margin-bottom="0"
   inkscape:zoom="17.970443"
   inkscape:cx="47.855445"
   inkscape:cy="79.715077"
   inkscape:window-x="47"
   inkscape:window-y="27"
   inkscape:window-maximized="1"
   inkscape:current-layer="Layer_1"
   inkscape:snap-global="true"
   inkscape:snap-bbox="true"
   inkscape:bbox-paths="true"
   showguides="true"
   inkscape:guide-bbox="true" />
<style
   type="text/css"
   id="style2">
	.st0{fill:none;stroke:#000000;stroke-miterlimit:10;}
	.st1{fill:none;}
	.st2{stroke:#000000;stroke-miterlimit:10;}
</style>

<g
   aria-label="CREATIVES"
   style="font-style:normal;font-variant:normal;font-weight:normal;font-stretch:normal;font-size:40px;line-height:1.25;font-family:'Source Sans Pro';-inkscape-font-specification:'Source Sans Pro';letter-spacing:0px;word-spacing:0px;fill:#f5f5f5;fill-opacity:1;stroke:none;stroke-width:1"
   id="text930"
   transform="translate(39.999998)"><path
     d="m 314.87631,128.84678 -3.66934,-2.048 c -7.424,11.09333 -17.152,12.62933 -21.07733,12.62933 -8.53333,0 -21.33333,-6.656 -21.33333,-25.856 0,-15.103998 8.36266,-26.282665 19.62666,-26.282665 13.14134,0 17.408,9.045333 21.93067,18.346665 h 2.73067 l -4.096,-20.565332 h -2.816 l -1.792,3.584 c -5.03467,-3.84 -10.24,-5.461333 -17.57867,-5.461333 -11.34933,0 -28.07467,10.410667 -28.07467,30.464005 0,17.06666 12.88534,29.86666 30.12267,29.86666 11.008,0 19.712,-4.864 26.02667,-14.67733 z"
     style="font-style:normal;font-variant:normal;font-weight:normal;font-stretch:normal;font-size:85.33333588px;font-family:'TeX Gyre Bonum Math';-inkscape-font-specification:'TeX Gyre Bonum Math';letter-spacing:10px;fill:#f5f5f5;fill-opacity:1;stroke-width:1"
     id="path1329"
     inkscape:connector-curvature="0" /><path
     d="m 392.73631,142.41478 v -2.64533 c -4.18133,-0.768 -6.48533,-2.13334 -9.13066,-5.54667 l -14.16534,-20.05333 c 14.08,-2.048 15.78667,-10.92267 15.78667,-15.189338 0,-9.130667 -7.424,-14.677334 -19.712,-14.677334 h -34.73067 v 2.645333 l 2.13333,0.256 c 4.43734,0.597334 5.54667,2.389334 5.54667,9.386667 v 33.536002 c 0,6.99733 -1.10933,8.78933 -5.54667,9.38667 l -2.13333,0.256 v 2.64533 h 24.832 v -2.64533 l -3.072,-0.256 c -4.352,-0.42667 -5.54667,-2.47467 -5.54667,-9.38667 v -15.104 h 12.288 l 19.20001,27.392 z M 376.01098,99.321445 c 0,4.010665 -1.62133,12.032005 -14.67734,12.032005 h -14.336 V 92.836112 c 0,-2.986667 1.62134,-5.034667 12.62934,-5.034667 10.92266,0 16.384,3.84 16.384,11.52 z"
     style="font-style:normal;font-variant:normal;font-weight:normal;font-stretch:normal;font-size:85.33333588px;font-family:'TeX Gyre Bonum Math';-inkscape-font-specification:'TeX Gyre Bonum Math';letter-spacing:10px;fill:#f5f5f5;fill-opacity:1;stroke-width:1"
     id="path1331"
     inkscape:connector-curvature="0" /><path
     d="m 459.79898,124.23878 -2.64533,-1.19467 c -9.30134,11.94667 -16.29867,15.70134 -29.01334,15.70134 -8.10667,0 -9.64267,-2.304 -9.64267,-7.50934 v -18.00533 h 6.31467 c 6.74133,0 9.64267,2.98667 10.496,11.008 h 2.90133 V 98.724112 h -2.90133 c -1.19467,8.874668 -3.072,10.837338 -10.32533,10.837338 h -6.48534 V 95.054778 c 0,-5.461333 2.21867,-7.082667 9.728,-7.082667 11.60534,0 18.09067,3.242667 25.94134,12.799999 l 2.73067,-1.109332 -5.888,-15.36 h -48.72534 v 2.645333 l 2.13333,0.256 c 4.43734,0.597334 5.54667,2.389334 5.54667,9.386667 v 33.536002 c 0,6.99733 -1.10933,8.78933 -5.54667,9.38667 l -2.13333,0.256 v 2.64533 h 49.74934 z"
     style="font-style:normal;font-variant:normal;font-weight:normal;font-stretch:normal;font-size:85.33333588px;font-family:'TeX Gyre Bonum Math';-inkscape-font-specification:'TeX Gyre Bonum Math';letter-spacing:10px;fill:#f5f5f5;fill-opacity:1;stroke-width:1"
     id="path1333"
     inkscape:connector-curvature="0" /><path
     d="m 532.06698,142.41478 v -2.64533 c -5.54667,-0.85334 -6.57067,-1.792 -9.64267,-9.728 L 504.33364,84.302778 h -7.936 l -14.67733,37.632002 c -5.71733,14.592 -7.08267,16.55467 -12.8,17.664 l -0.93867,0.17067 v 2.64533 h 22.86934 v -2.64533 c -3.072,-0.42667 -4.52267,-0.768 -5.46134,-1.36534 -3.072,-2.048 -2.38933,-5.46133 -0.512,-10.24 l 2.73067,-7.33866 h 22.016 l 4.26667,11.008 c 1.87733,5.29066 1.28,6.912 -5.80267,7.936 v 2.64533 z m -23.97867,-25.25867 h -19.2 l 9.472,-25.599999 z"
     style="font-style:normal;font-variant:normal;font-weight:normal;font-stretch:normal;font-size:85.33333588px;font-family:'TeX Gyre Bonum Math';-inkscape-font-specification:'TeX Gyre Bonum Math';letter-spacing:10px;fill:#f5f5f5;fill-opacity:1;stroke-width:1"
     id="path1335"
     inkscape:connector-curvature="0" /><path
     d="m 595.11763,99.321445 -4.77867,-15.018667 h -49.49333 l -4.864,15.018667 2.816,1.024005 c 5.03467,-8.874672 10.92267,-12.800005 18.77333,-12.800005 2.816,0 3.75467,0.853333 3.75467,3.413333 v 39.168002 c 0,6.912 -1.28,9.04533 -5.54667,9.38667 l -3.328,0.256 v 2.64533 h 26.28267 v -2.64533 l -3.328,-0.256 c -4.26667,-0.34134 -5.54667,-2.47467 -5.54667,-9.38667 V 91.300111 c 0,-2.986666 0.68267,-3.754666 3.49867,-3.754666 7.50933,0 13.99467,4.437333 18.77333,12.800005 z"
     style="font-style:normal;font-variant:normal;font-weight:normal;font-stretch:normal;font-size:85.33333588px;font-family:'TeX Gyre Bonum Math';-inkscape-font-specification:'TeX Gyre Bonum Math';letter-spacing:10px;fill:#f5f5f5;fill-opacity:1;stroke-width:1"
     id="path1337"
     inkscape:connector-curvature="0" /><path
     d="m 627.65764,142.41478 v -2.64533 l -1.70667,-0.256 c -4.608,-0.768 -5.54666,-2.304 -5.54666,-9.38667 V 96.590778 c 0,-7.082667 0.93866,-8.618667 5.54666,-9.386667 l 1.70667,-0.256 v -2.645333 h -23.04 v 2.645333 l 1.70667,0.256 c 4.608,0.768 5.54666,2.304 5.54666,9.386667 v 33.536002 c 0,7.08267 -0.93866,8.61867 -5.54666,9.38667 l -1.70667,0.256 v 2.64533 z"
     style="font-style:normal;font-variant:normal;font-weight:normal;font-stretch:normal;font-size:85.33333588px;font-family:'TeX Gyre Bonum Math';-inkscape-font-specification:'TeX Gyre Bonum Math';letter-spacing:10px;fill:#f5f5f5;fill-opacity:1;stroke-width:1"
     id="path1339"
     inkscape:connector-curvature="0" /><path
     d="m 702.83897,86.948111 v -2.645333 h -22.784 v 2.645333 c 7.424,0.341334 9.13067,3.413334 6.99734,8.789334 L 672.37497,132.94278 657.35631,94.201445 c -2.47467,-6.4 1.45066,-7.082667 6.57066,-7.253334 v -2.645333 h -25.51466 v 2.645333 l 0.85333,0.170667 c 4.94933,0.597333 6.4,1.962667 9.216,8.704 l 19.2,46.592002 h 5.12 l 18.688,-45.312002 c 3.584,-8.362667 4.864,-9.472 11.34933,-10.154667 z"
     style="font-style:normal;font-variant:normal;font-weight:normal;font-stretch:normal;font-size:85.33333588px;font-family:'TeX Gyre Bonum Math';-inkscape-font-specification:'TeX Gyre Bonum Math';letter-spacing:10px;fill:#f5f5f5;fill-opacity:1;stroke-width:1"
     id="path1341"
     inkscape:connector-curvature="0" /><path
     d="m 770.79899,124.23878 -2.64533,-1.19467 c -9.30133,11.94667 -16.29867,15.70134 -29.01333,15.70134 -8.10667,0 -9.64267,-2.304 -9.64267,-7.50934 v -18.00533 h 6.31467 c 6.74133,0 9.64266,2.98667 10.496,11.008 h 2.90133 V 98.724112 h -2.90133 c -1.19467,8.874668 -3.072,10.837338 -10.32534,10.837338 h -6.48533 V 95.054778 c 0,-5.461333 2.21867,-7.082667 9.728,-7.082667 11.60533,0 18.09067,3.242667 25.94133,12.799999 l 2.73067,-1.109332 -5.888,-15.36 h -48.72533 v 2.645333 l 2.13333,0.256 c 4.43733,0.597334 5.54667,2.389334 5.54667,9.386667 v 33.536002 c 0,6.99733 -1.10934,8.78933 -5.54667,9.38667 l -2.13333,0.256 v 2.64533 h 49.74933 z"
     style="font-style:normal;font-variant:normal;font-weight:normal;font-stretch:normal;font-size:85.33333588px;font-family:'TeX Gyre Bonum Math';-inkscape-font-specification:'TeX Gyre Bonum Math';letter-spacing:10px;fill:#f5f5f5;fill-opacity:1;stroke-width:1"
     id="path1343"
     inkscape:connector-curvature="0" /><path
     d="m 836.24033,125.17745 c 0,-10.15467 -5.97334,-13.99467 -18.09067,-16.896 l -10.66667,-2.56 c -8.27733,-2.048 -11.60533,-4.69334 -11.60533,-9.301338 0,-5.120001 5.46133,-9.130667 12.544,-9.130667 8.192,0 15.01867,4.352 20.992,13.482665 l 2.73067,-1.023998 -5.20534,-15.445334 h -3.072 l -1.024,3.072 c -4.77866,-2.901333 -9.64266,-4.181333 -16.128,-4.181333 -14.25066,0 -19.54133,9.216 -19.54133,15.274667 0,11.519998 13.312,14.506668 17.57867,15.615998 l 11.43466,2.90134 c 8.448,2.048 11.34934,4.608 11.34934,9.728 0,7.25333 -6.656,12.71466 -15.44534,12.71466 -9.81333,0 -18.432,-6.144 -24.40533,-17.57866 l -3.15733,1.024 5.54666,19.54133 h 3.15734 l 1.62133,-4.26667 c 5.20533,3.66934 10.83733,5.376 17.664,5.376 13.312,0 23.72267,-8.10666 23.72267,-18.34666 z"
     style="font-style:normal;font-variant:normal;font-weight:normal;font-stretch:normal;font-size:85.33333588px;font-family:'TeX Gyre Bonum Math';-inkscape-font-specification:'TeX Gyre Bonum Math';letter-spacing:10px;fill:#f5f5f5;fill-opacity:1;stroke-width:1"
     id="path1345"
     inkscape:connector-curvature="0" /></g>

<g
   id="g965"
   sodipodi:insensitive="true"><line
     style="stroke:#ababab;stroke-width:4;stroke-miterlimit:10;stroke-dasharray:none;stroke-opacity:1"
     id="line73"
     y2="54.503841"
     x2="199.2366"
     y1="26.106869"
     x1="183.66409"
     class="st2" /><line
     style="fill:none;stroke:#ababab;stroke-width:4;stroke-miterlimit:10;stroke-dasharray:none;stroke-opacity:1"
     id="line75"
     y2="82.90078"
     x2="222.13736"
     y1="25.190853"
     x1="183.66409"
     class="st0" /><line
     style="fill:none;stroke:#ababab;stroke-width:4;stroke-miterlimit:10;stroke-dasharray:none;stroke-opacity:1"
     id="line77"
     y2="54.503841"
     x2="199.2366"
     y1="82.90078"
     x1="222.13736"
     class="st0" /><line
     style="fill:none;stroke:#ababab;stroke-width:4;stroke-miterlimit:10;stroke-dasharray:none;stroke-opacity:1"
     id="line79"
     y2="54.503841"
     x2="199.2366"
     y1="47.175594"
     x1="135.11453"
     class="st0" /><line
     style="fill:none;stroke:#ababab;stroke-width:4;stroke-miterlimit:10;stroke-dasharray:none;stroke-opacity:1"
     id="line81"
     y2="10.534355"
     x2="150.68704"
     y1="46.259548"
     x1="135.11453"
     class="st0" /><line
     style="fill:none;stroke:#ababab;stroke-width:4;stroke-miterlimit:10;stroke-dasharray:none;stroke-opacity:1"
     id="line83"
     y2="10.534355"
     x2="150.68704"
     y1="25.190853"
     x1="182.74808"
     class="st0" /><line
     style="fill:none;stroke:#ababab;stroke-width:4;stroke-miterlimit:10;stroke-dasharray:none;stroke-opacity:1"
     id="line85"
     y2="54.503841"
     x2="199.2366"
     y1="11.450401"
     x1="150.68704"
     class="st0" /><line
     style="fill:none;stroke:#ababab;stroke-width:4;stroke-miterlimit:10;stroke-dasharray:none;stroke-opacity:1"
     id="line87"
     y2="54.503841"
     x2="199.2366"
     y1="114.96185"
     x1="180.00003"
     class="st0" /><line
     style="fill:none;stroke:#ababab;stroke-width:4;stroke-miterlimit:10;stroke-dasharray:none;stroke-opacity:1"
     id="line89"
     y2="82.90078"
     x2="222.13736"
     y1="117.70995"
     x1="220.30533"
     class="st0" /><line
     style="fill:none;stroke:#ababab;stroke-width:4;stroke-miterlimit:10;stroke-dasharray:none;stroke-opacity:1"
     id="line91"
     y2="114.96185"
     x2="180.00003"
     y1="117.70995"
     x1="220.30533"
     class="st0" /><line
     style="fill:none;stroke:#ababab;stroke-width:4;stroke-miterlimit:10;stroke-dasharray:none;stroke-opacity:1"
     id="line93"
     y2="54.503841"
     x2="199.2366"
     y1="118.62597"
     x1="221.22134"
     class="st0" /><line
     style="fill:none;stroke:#ababab;stroke-width:4;stroke-miterlimit:10;stroke-dasharray:none;stroke-opacity:1"
     id="line95"
     y2="155.26721"
     x2="218.4733"
     y1="117.70995"
     x1="219.38931"
     class="st0" /><line
     style="fill:none;stroke:#ababab;stroke-width:4;stroke-miterlimit:10;stroke-dasharray:none;stroke-opacity:1"
     id="line97"
     y2="177.25195"
     x2="193.74039"
     y1="155.26721"
     x1="217.55728"
     class="st0" /><line
     style="fill:none;stroke:#ababab;stroke-width:4;stroke-miterlimit:10;stroke-dasharray:none;stroke-opacity:1"
     id="line99"
     y2="177.25195"
     x2="193.74039"
     y1="115.87786"
     x1="180.00003"
     class="st0" /><line
     style="fill:none;stroke:#ababab;stroke-width:4;stroke-miterlimit:10;stroke-dasharray:none;stroke-opacity:1"
     id="line101"
     y2="117.70995"
     x2="220.30533"
     y1="176.33588"
     x1="193.74039"
     class="st0" /><line
     style="fill:none;stroke:#ababab;stroke-width:4;stroke-miterlimit:10;stroke-dasharray:none;stroke-opacity:1"
     id="line103"
     y2="206.56488"
     x2="176.33585"
     y1="155.26721"
     x1="217.55728"
     class="st0" /><line
     style="fill:none;stroke:#ababab;stroke-width:4;stroke-miterlimit:10;stroke-dasharray:none;stroke-opacity:1"
     id="line105"
     y2="206.56488"
     x2="176.33585"
     y1="216.64124"
     x1="142.44278"
     class="st0" /><line
     style="fill:none;stroke:#ababab;stroke-width:4;stroke-miterlimit:10;stroke-dasharray:none;stroke-opacity:1"
     id="line107"
     y2="177.25195"
     x2="193.74039"
     y1="215.72522"
     x1="142.44278"
     class="st0" /><line
     style="fill:none;stroke:#ababab;stroke-width:4;stroke-miterlimit:10;stroke-dasharray:none;stroke-opacity:1"
     id="line109"
     y2="176.33588"
     x2="193.74039"
     y1="176.33588"
     x1="129.61832"
     class="st0" /><line
     style="fill:none;stroke:#ababab;stroke-width:4;stroke-miterlimit:10;stroke-dasharray:none;stroke-opacity:1"
     id="line111"
     y2="216.64124"
     x2="142.44278"
     y1="177.25195"
     x1="129.61832"
     class="st0" /><line
     style="fill:none;stroke:#ababab;stroke-width:4;stroke-miterlimit:10;stroke-dasharray:none;stroke-opacity:1"
     id="line113"
     y2="176.33588"
     x2="130.53433"
     y1="114.96185"
     x1="180.00003"
     class="st0" /><line
     style="fill:none;stroke:#ababab;stroke-width:4;stroke-miterlimit:10;stroke-dasharray:none;stroke-opacity:1"
     id="line115"
     y2="111.29772"
     x2="112.21378"
     y1="175.41986"
     x1="129.61832"
     class="st0" /><line
     style="fill:none;stroke:#ababab;stroke-width:4;stroke-miterlimit:10;stroke-dasharray:none;stroke-opacity:1"
     id="line117"
     y2="114.96185"
     x2="180.00003"
     y1="111.29772"
     x1="113.12979"
     class="st0" /><line
     style="fill:none;stroke:#ababab;stroke-width:4;stroke-miterlimit:10;stroke-dasharray:none;stroke-opacity:1"
     id="line119"
     y2="111.29772"
     x2="113.12979"
     y1="148.85498"
     x1="55.41983"
     class="st0" /><line
     style="fill:none;stroke:#ababab;stroke-width:4;stroke-miterlimit:10;stroke-dasharray:none;stroke-opacity:1"
     id="line121"
     y2="176.33588"
     x2="130.53433"
     y1="148.85498"
     x1="55.41983"
     class="st0" /><line
     style="fill:none;stroke:#ababab;stroke-width:4;stroke-miterlimit:10;stroke-dasharray:none;stroke-opacity:1"
     id="line123"
     y2="148.85498"
     x2="55.41983"
     y1="208.39697"
     x1="76.488556"
     class="st0" /><line
     style="fill:none;stroke:#ababab;stroke-width:4;stroke-miterlimit:10;stroke-dasharray:none;stroke-opacity:1"
     id="line125"
     y2="148.85498"
     x2="55.41983"
     y1="171.75574"
     x1="25.190828"
     class="st0" /><line
     style="fill:none;stroke:#ababab;stroke-width:4;stroke-miterlimit:10;stroke-dasharray:none;stroke-opacity:1"
     id="line127"
     y2="208.39697"
     x2="76.488556"
     y1="172.67175"
     x1="25.190828"
     class="st0" /><line
     style="fill:none;stroke:#ababab;stroke-width:4;stroke-miterlimit:10;stroke-dasharray:none;stroke-opacity:1"
     id="line129"
     y2="201.06873"
     x2="45.343536"
     y1="172.67175"
     x1="24.274813"
     class="st0" /><line
     style="fill:none;stroke:#ababab;stroke-width:4;stroke-miterlimit:10;stroke-dasharray:none;stroke-opacity:1"
     id="line131"
     y2="209.31299"
     x2="76.488556"
     y1="216.64124"
     x1="143.3588"
     class="st0" /><line
     style="fill:none;stroke:#ababab;stroke-width:4;stroke-miterlimit:10;stroke-dasharray:none;stroke-opacity:1"
     id="line133"
     y2="201.06873"
     x2="45.343536"
     y1="208.39697"
     x1="76.488556"
     class="st0" /><line
     style="fill:none;stroke:#ababab;stroke-width:4;stroke-miterlimit:10;stroke-dasharray:none;stroke-opacity:1"
     id="line135"
     y2="208.39697"
     x2="76.488556"
     y1="176.33588"
     x1="129.61832"
     class="st0" /><line
     style="fill:none;stroke:#ababab;stroke-width:4;stroke-miterlimit:10;stroke-dasharray:none;stroke-opacity:1"
     id="line137"
     y2="111.29772"
     x2="112.21378"
     y1="69.160301"
     x1="59.083893"
     class="st0" /><line
     style="fill:none;stroke:#ababab;stroke-width:4;stroke-miterlimit:10;stroke-dasharray:none;stroke-opacity:1"
     id="line139"
     y2="148.85498"
     x2="55.41983"
     y1="68.244293"
     x1="59.083893"
     class="st0" /><line
     style="fill:none;stroke:#ababab;stroke-width:4;stroke-miterlimit:10;stroke-dasharray:none;stroke-opacity:1"
     id="line141"
     y2="148.85498"
     x2="55.41983"
     y1="108.54961"
     x1="10.534333"
     class="st0" /><line
     style="fill:none;stroke:#ababab;stroke-width:4;stroke-miterlimit:10;stroke-dasharray:none;stroke-opacity:1"
     id="line143"
     y2="108.54961"
     x2="10.534333"
     y1="171.75574"
     x1="25.190828"
     class="st0" /><line
     style="fill:none;stroke:#ababab;stroke-width:4;stroke-miterlimit:10;stroke-dasharray:none;stroke-opacity:1"
     id="line145"
     y2="142.44275"
     x2="2.290071"
     y1="173.58783"
     x1="25.190828"
     class="st0" /><line
     style="fill:none;stroke:#ababab;stroke-width:4;stroke-miterlimit:10;stroke-dasharray:none;stroke-opacity:1"
     id="line147"
     y2="142.44275"
     x2="1.3740553"
     y1="75.572533"
     x1="7.7862868"
     class="st0" /><line
     style="fill:none;stroke:#ababab;stroke-width:4;stroke-miterlimit:10;stroke-dasharray:none;stroke-opacity:1"
     id="line149"
     y2="108.54961"
     x2="11.450349"
     y1="69.160301"
     x1="58.167877"
     class="st0" /><line
     style="fill:none;stroke:#ababab;stroke-width:4;stroke-miterlimit:10;stroke-dasharray:none;stroke-opacity:1"
     id="line151"
     y2="75.572533"
     x2="7.7862868"
     y1="46.259548"
     x1="27.938875"
     class="st0" /><line
     style="fill:none;stroke:#ababab;stroke-width:4;stroke-miterlimit:10;stroke-dasharray:none;stroke-opacity:1"
     id="line153"
     y2="46.259548"
     x2="27.938875"
     y1="68.244293"
     x1="58.167877"
     class="st0" /><line
     style="fill:none;stroke:#ababab;stroke-width:4;stroke-miterlimit:10;stroke-dasharray:none;stroke-opacity:1"
     id="line155"
     y2="46.259548"
     x2="27.938875"
     y1="20.61068"
     x1="52.671783"
     class="st0" /><line
     style="fill:none;stroke:#ababab;stroke-width:4;stroke-miterlimit:10;stroke-dasharray:none;stroke-opacity:1"
     id="line157"
     y2="46.259548"
     x2="27.938875"
     y1="12.366417"
     x1="83.816803"
     class="st0" /><line
     style="fill:none;stroke:#ababab;stroke-width:4;stroke-miterlimit:10;stroke-dasharray:none;stroke-opacity:1"
     id="line159"
     y2="13.282463"
     x2="82.900787"
     y1="21.526726"
     x1="51.755646"
     class="st0" /><line
     style="fill:none;stroke:#ababab;stroke-width:4;stroke-miterlimit:10;stroke-dasharray:none;stroke-opacity:1"
     id="line161"
     y2="12.366417"
     x2="83.816803"
     y1="69.160301"
     x1="59.083893"
     class="st0" /><line
     style="fill:none;stroke:#ababab;stroke-width:4;stroke-miterlimit:10;stroke-dasharray:none;stroke-opacity:1"
     id="line163"
     y2="12.366417"
     x2="83.816803"
     y1="46.259548"
     x1="135.11453"
     class="st0" /><line
     style="fill:none;stroke:#ababab;stroke-width:4;stroke-miterlimit:10;stroke-dasharray:none;stroke-opacity:1"
     id="line165"
     y2="46.259548"
     x2="136.03055"
     y1="69.160301"
     x1="59.083893"
     class="st0" /><line
     style="fill:none;stroke:#ababab;stroke-width:4;stroke-miterlimit:10;stroke-dasharray:none;stroke-opacity:1"
     id="line167"
     y2="46.259548"
     x2="136.03055"
     y1="109.46563"
     x1="113.12979"
     class="st0" /><line
     style="fill:none;stroke:#ababab;stroke-width:4;stroke-miterlimit:10;stroke-dasharray:none;stroke-opacity:1"
     id="line169"
     y2="46.259548"
     x2="135.11453"
     y1="114.96185"
     x1="180.00003"
     class="st0" /><line
     style="fill:none;stroke:#ababab;stroke-width:4;stroke-miterlimit:10;stroke-dasharray:none;stroke-opacity:1"
     id="line171"
     y2="12.366417"
     x2="83.816803"
     y1="10.534355"
     x1="150.68704"
     class="st0" /><line
     style="fill:none;stroke:#ababab;stroke-width:4;stroke-miterlimit:10;stroke-dasharray:none;stroke-opacity:1"
     id="line173"
     y2="12.366417"
     x2="83.816803"
     y1="1.3740461"
     x1="116.79385"
     class="st0" /><line
     style="fill:none;stroke:#ababab;stroke-width:4;stroke-miterlimit:10;stroke-dasharray:none;stroke-opacity:1"
     id="line175"
     y2="1.3740461"
     x2="116.79385"
     y1="10.534355"
     x1="150.68704"
     class="st0" /><line
     style="fill:none;stroke:#ababab;stroke-width:4;stroke-miterlimit:10;stroke-dasharray:none;stroke-opacity:1"
     id="line179"
     y2="225.80151"
     x2="109.46561"
     y1="216.64124"
     x1="142.44278"
     class="st0" /><line
     style="fill:none;stroke:#ababab;stroke-width:4;stroke-miterlimit:10;stroke-dasharray:none;stroke-opacity:1"
     id="line181"
     y2="225.80151"
     x2="109.46561"
     y1="208.39697"
     x1="76.488556"
     class="st0" /><line
     style="fill:none;stroke:#ababab;stroke-width:4;stroke-miterlimit:10;stroke-dasharray:none;stroke-opacity:1"
     id="line183"
     y2="225.80151"
     x2="109.46561"
     y1="201.06873"
     x1="45.343536"
     class="st0" /><line
     style="fill:none;stroke:#ababab;stroke-width:4;stroke-miterlimit:10;stroke-dasharray:none;stroke-opacity:1"
     id="line185"
     y2="108.54961"
     x2="10.534333"
     y1="75.572533"
     x1="7.7862868"
     class="st0" /><line
     style="fill:none;stroke:#ababab;stroke-width:4;stroke-miterlimit:10;stroke-dasharray:none;stroke-opacity:1"
     id="line187"
     y2="108.54961"
     x2="10.534333"
     y1="141.52673"
     x1="2.290071"
     class="st0" /><line
     style="fill:none;stroke:#ababab;stroke-width:4;stroke-miterlimit:10;stroke-dasharray:none;stroke-opacity:1"
     id="line189"
     y2="108.54961"
     x2="10.534333"
     y1="46.259548"
     x1="27.938875"
     class="st0" /></g><circle
   cx="7.7862868"
   cy="75.572533"
   r="2.4757988"
   id="circle49"
   style="fill:#efefef;fill-opacity:0.94117647;stroke-width:1.65047753;stroke-miterlimit:10;stroke-dasharray:none" /><circle
   cx="218.01529"
   cy="154.8092"
   r="2.7224119"
   id="circle71"
   style="fill:#efefef;fill-opacity:0.94117647;stroke-width:1.36116064;stroke-miterlimit:10;stroke-dasharray:none" /><circle
   cx="176.33585"
   cy="206.56488"
   r="2.2900763"
   id="circle67"
   style="fill:#efefef;fill-opacity:0.94117647;stroke-width:0.91600001;stroke-miterlimit:10;stroke-dasharray:none" /><circle
   cx="193.56882"
   cy="176.00691"
   r="2.8337059"
   id="circle69"
   style="fill:#efefef;fill-opacity:0.94117647;stroke-width:1.41680574;stroke-miterlimit:10;stroke-dasharray:none" /><circle
   cx="130.07632"
   cy="176.79388"
   r="3.6641221"
   id="circle65"
   style="fill:#efefef;fill-opacity:0.94117647;stroke-width:0.91600001;stroke-miterlimit:10;stroke-dasharray:none" /><circle
   cx="55.586773"
   cy="148.40981"
   r="2.9578395"
   id="circle55"
   style="fill:#efefef;fill-opacity:0.94117647;stroke-width:1.18309641;stroke-miterlimit:10;stroke-dasharray:none" /><circle
   cx="24.732821"
   cy="172.21375"
   r="3.6641221"
   id="circle57"
   style="fill:#efefef;fill-opacity:0.94117647;stroke-width:0.91600001;stroke-miterlimit:10;stroke-dasharray:none" /><circle
   cx="142.90079"
   cy="216.18323"
   r="5.4961834"
   id="circle63"
   style="fill:#efefef;fill-opacity:0.94117647;stroke-width:0.91600001;stroke-miterlimit:10;stroke-dasharray:none" /><circle
   cx="76.488556"
   cy="208.39697"
   r="3.4586618"
   id="circle61"
   style="fill:#efefef;fill-opacity:0.94117647;stroke-width:1.38341868;stroke-miterlimit:10;stroke-dasharray:none" /><circle
   cx="44.885529"
   cy="200.61072"
   r="2.6190274"
   id="circle59"
   style="fill:#efefef;fill-opacity:0.94117647;stroke-width:1.30947006;stroke-miterlimit:10;stroke-dasharray:none" /><circle
   cx="1.8320631"
   cy="141.98474"
   r="2.7764208"
   id="circle53"
   style="fill:#efefef;fill-opacity:0.94117647;stroke-width:1.38816416;stroke-miterlimit:10;stroke-dasharray:none" /><circle
   cx="58.625885"
   cy="68.702293"
   r="6.4464684"
   id="circle43"
   style="fill:#efefef;fill-opacity:0.94117647;stroke-width:1.61156344;stroke-miterlimit:10;stroke-dasharray:none" /><circle
   cx="116.79385"
   cy="1.3740461"
   r="2.7512372"
   id="circle27"
   style="fill:#efefef;fill-opacity:0.94117647;stroke-width:1.83409691;stroke-miterlimit:10;stroke-dasharray:none" /><circle
   cx="150.68704"
   cy="10.534355"
   r="3.100771"
   id="circle25"
   style="fill:#efefef;fill-opacity:0.94117647;stroke-width:1.24026704;stroke-miterlimit:10;stroke-dasharray:none" /><circle
   cx="183.20609"
   cy="25.648861"
   r="3.4846907"
   id="circle29"
   style="fill:#efefef;fill-opacity:0.94117647;stroke-width:1.74228728;stroke-miterlimit:10;stroke-dasharray:none" /><circle
   cx="135.57254"
   cy="46.717556"
   r="4.3220243"
   id="circle41"
   style="fill:#efefef;fill-opacity:0.94117647;stroke-width:1.44062674;stroke-miterlimit:10;stroke-dasharray:none" /><circle
   cx="199.2366"
   cy="54.503841"
   r="3.8514345"
   id="circle31"
   style="fill:#efefef;fill-opacity:0.94117647;stroke-width:2.56753731;stroke-miterlimit:10;stroke-dasharray:none" /><circle
   cx="222.13736"
   cy="82.90078"
   r="2.3184056"
   id="circle33"
   style="fill:#efefef;fill-opacity:0.94117647;stroke-width:1.54555213;stroke-miterlimit:10;stroke-dasharray:none" /><circle
   cx="220.30533"
   cy="117.70995"
   r="3.2061069"
   id="circle35"
   style="fill:#efefef;fill-opacity:0.94117647;stroke-width:0.91600001;stroke-miterlimit:10;stroke-dasharray:none" /><circle
   cx="180.00003"
   cy="114.96185"
   r="5.038168"
   id="circle37"
   style="fill:#efefef;fill-opacity:0.94117647;stroke-width:0.91600001;stroke-miterlimit:10;stroke-dasharray:none" /><circle
   cx="11.257743"
   cy="108.54961"
   r="3.1547475"
   id="circle51"
   style="fill:#efefef;fill-opacity:0.94117647;stroke-width:2.10309482;stroke-miterlimit:10;stroke-dasharray:none" /><circle
   cx="28.495344"
   cy="47.261192"
   r="3.1804271"
   id="circle47"
   style="fill:#efefef;fill-opacity:0.94117647;stroke-width:1.27212846;stroke-miterlimit:10;stroke-dasharray:none" /><circle
   cx="83.358795"
   cy="12.824425"
   r="4.5287933"
   id="circle23"
   style="fill:#efefef;fill-opacity:0.94117647;stroke-width:1.50954747;stroke-miterlimit:10;stroke-dasharray:none" /><circle
   cx="52.213776"
   cy="21.068718"
   r="4.9482889"
   id="circle45"
   style="fill:#efefef;fill-opacity:0.94117647;stroke-width:2.4740622;stroke-miterlimit:10;stroke-dasharray:none" /><circle
   cx="112.21378"
   cy="111.29772"
   r="9.1020641"
   id="circle39"
   style="fill:#efefef;fill-opacity:0.94117647;stroke-width:1.40027094;stroke-miterlimit:10;stroke-dasharray:none" /><circle
   class="st0"
   cx="109.46561"
   cy="225.80151"
   r="2.2145252"
   id="circle177"
   style="fill:#ebebeb;fill-opacity:1;stroke:none;stroke-width:2.21445131;stroke-miterlimit:10;stroke-dasharray:none" />
</svg>