<?xml version="1.0" encoding="UTF-8" standalone="no"?>
<!-- Svg Vector Icons : http://www.onlinewebfonts.com/icon -->

<svg
   xmlns:dc="http://purl.org/dc/elements/1.1/"
   xmlns:cc="http://creativecommons.org/ns#"
   xmlns:rdf="http://www.w3.org/1999/02/22-rdf-syntax-ns#"
   xmlns:svg="http://www.w3.org/2000/svg"
   xmlns="http://www.w3.org/2000/svg"
   xmlns:sodipodi="http://sodipodi.sourceforge.net/DTD/sodipodi-0.dtd"
   xmlns:inkscape="http://www.inkscape.org/namespaces/inkscape"
   version="1.1"
   x="0px"
   y="0px"
   viewBox="0 0 979.97498 819.70013"
   enable-background="new 0 0 1000 1000"
   xml:space="preserve"
   id="svg18"
   sodipodi:docname="register-user-icon.svg"
   width="979.97498"
   height="819.70013"
   inkscape:version="0.92.3 (2405546, 2018-03-11)"><defs
   id="defs22" /><sodipodi:namedview
   pagecolor="#ffffff"
   bordercolor="#666666"
   borderopacity="1"
   objecttolerance="10"
   gridtolerance="10"
   guidetolerance="10"
   inkscape:pageopacity="0"
   inkscape:pageshadow="2"
   inkscape:window-width="1233"
   inkscape:window-height="665"
   id="namedview20"
   showgrid="false"
   fit-margin-top="0"
   fit-margin-left="0"
   fit-margin-right="0"
   fit-margin-bottom="0"
   inkscape:zoom="0.3337544"
   inkscape:cx="651.61099"
   inkscape:cy="367.41891"
   inkscape:window-x="47"
   inkscape:window-y="27"
   inkscape:window-maximized="1"
   inkscape:current-layer="svg18" />
<metadata
   id="metadata2"> Svg Vector Icons : http://www.onlinewebfonts.com/icon <rdf:RDF><cc:Work
     rdf:about=""><dc:format>image/svg+xml</dc:format><dc:type
       rdf:resource="http://purl.org/dc/dcmitype/StillImage" /><dc:title /></cc:Work></rdf:RDF></metadata>
<g
   id="g16"
   style="fill:#606a6c;fill-opacity:1;stroke:none"
   transform="translate(-10,-90.199862)"><path
     d="m 737.3,302.9 c 0,-16.8 -13.6,-30.4 -30.4,-30.4 H 175.1 c -16.8,0 -30.4,13.6 -30.4,30.4 0,16.8 13.6,30.4 30.4,30.4 h 531.8 c 16.8,0 30.4,-13.6 30.4,-30.4 z"
     id="path4"
     inkscape:connector-curvature="0"
     style="fill:#606a6c;fill-opacity:1;stroke:none" /><path
     d="m 594.9,484.6 c 0,-16.8 -13.6,-30.4 -30.4,-30.4 H 175.1 c -16.8,0 -30.4,13.6 -30.4,30.4 0,16.8 13.6,30.4 30.4,30.4 h 389.5 c 16.7,-0.1 30.3,-13.7 30.3,-30.4 z"
     id="path6"
     inkscape:connector-curvature="0"
     style="fill:#606a6c;fill-opacity:1;stroke:none" /><path
     d="m 175.1,636.4 c -16.8,0 -30.4,13.6 -30.4,30.4 0,16.8 13.6,30.4 30.4,30.4 H 363 c 16.8,0 30.4,-13.6 30.4,-30.4 0,-16.8 -13.6,-30.4 -30.4,-30.4 z"
     id="path8"
     inkscape:connector-curvature="0"
     style="fill:#606a6c;fill-opacity:1;stroke:none" /><path
     d="m 799.4,788.4 c 0,33.5 -27.2,60.7 -60.7,60.7 H 131.4 c -33.5,0 -60.7,-27.2 -60.7,-60.7 V 211.6 c 0,-33.5 27.2,-60.7 60.7,-60.7 h 30.4 c 0.8,0 1.7,0 2.5,-0.1 h 541.5 c 0.8,0.1 1.7,0.1 2.5,0.1 h 30.4 c 33.5,0 60.7,27.2 60.7,60.7 v 24.7 L 860.1,229 V 211.6 C 860.1,144.5 805.7,90.2 738.7,90.2 H 737.1 708.3 161.8 142.5 131.4 C 64.4,90.1 10,144.5 10,211.6 v 576.9 c 0,67.1 54.4,121.4 121.4,121.4 H 738.6 C 805.7,909.9 860,855.5 860,788.5 V 611.2 l -60.7,7.3 z"
     id="path10"
     inkscape:connector-curvature="0"
     style="fill:#606a6c;fill-opacity:1;stroke:none" /><path
     d="m 982.1,353.3 -72.7,-72.7 c -10.5,-10.5 -27.5,-10.5 -38,0 l -43,43 c -0.2,0.2 -0.4,0.4 -0.6,0.6 l 110.7,110.7 c 0.2,-0.2 0.4,-0.4 0.6,-0.6 l 43,-43 c 10.5,-10.5 10.5,-27.5 0,-38 z"
     id="path12"
     inkscape:connector-curvature="0"
     style="fill:#606a6c;fill-opacity:1;stroke:none" /><path
     d="M 539.3,611.6 539,722.1 652.2,722.3 914.4,460.1 802.7,348.3 Z m 118.9,53.4 -32.7,2.5 2.8,-35.2 -34.7,1.1 4.5,-30.2 39.1,-39.1 60.9,60.9 z M 810.9,401.3 c 3.6,3.6 3.6,9.3 0,12.9 L 671.2,553.9 c -3.6,3.6 -9.3,3.6 -12.9,0 -3.6,-3.6 -3.6,-9.3 0,-12.9 L 798.1,401.2 c 3.5,-3.5 9.3,-3.5 12.8,0.1 z"
     id="path14"
     inkscape:connector-curvature="0"
     style="fill:#606a6c;fill-opacity:1;stroke:none" /></g>
</svg>