<?xml version="1.0" encoding="UTF-8" standalone="no"?>
<svg
   xmlns:dc="http://purl.org/dc/elements/1.1/"
   xmlns:cc="http://creativecommons.org/ns#"
   xmlns:rdf="http://www.w3.org/1999/02/22-rdf-syntax-ns#"
   xmlns:svg="http://www.w3.org/2000/svg"
   xmlns="http://www.w3.org/2000/svg"
   xmlns:sodipodi="http://sodipodi.sourceforge.net/DTD/sodipodi-0.dtd"
   xmlns:inkscape="http://www.inkscape.org/namespaces/inkscape"
   width="20px"
   height="20px"
   viewBox="0 0 20 20"
   version="1.1"
   id="svg12"
   sodipodi:docname="showcase.svg"
   inkscape:version="0.92.3 (2405546, 2018-03-11)">
  <metadata
     id="metadata16">
    <rdf:RDF>
      <cc:Work
         rdf:about="">
        <dc:format>image/svg+xml</dc:format>
        <dc:type
           rdf:resource="http://purl.org/dc/dcmitype/StillImage" />
      </cc:Work>
    </rdf:RDF>
  </metadata>
  <sodipodi:namedview
     pagecolor="#ffffff"
     bordercolor="#666666"
     borderopacity="1"
     objecttolerance="10"
     gridtolerance="10"
     guidetolerance="10"
     inkscape:pageopacity="0"
     inkscape:pageshadow="2"
     inkscape:window-width="1440"
     inkscape:window-height="872"
     id="namedview14"
     showgrid="false"
     inkscape:snap-global="true"
     inkscape:snap-bbox="true"
     inkscape:bbox-paths="true"
     inkscape:bbox-nodes="true"
     inkscape:snap-bbox-edge-midpoints="true"
     inkscape:snap-bbox-midpoints="true"
     showguides="true"
     inkscape:guide-bbox="true"
     inkscape:zoom="16"
     inkscape:cx="21.262874"
     inkscape:cy="9.2520127"
     inkscape:window-x="1366"
     inkscape:window-y="0"
     inkscape:window-maximized="1"
     inkscape:current-layer="svg12" />
  <!-- Generator: Sketch 3.8.1 (29687) - http://www.bohemiancoding.com/sketch -->
  <title
     id="title2">showcase [#723]</title>
  <desc
     id="desc4">Created with Sketch.</desc>
  <defs
     id="defs6" />
  <path
     style="fill:#fefefe;fill-opacity:1;fill-rule:evenodd;stroke:none;stroke-width:1"
     inkscape:connector-curvature="0"
     id="showcase-[#723]"
     d="M 18,12 H 11 9 2 V 4 H 18 Z M 18,2 H 11 V 0 H 9 V 2 H 2 C 2,2 0.9243948,1.9484401 0.45299028,2.4198447 -0.01841424,2.8912492 0,4 0,4 v 8 c 0,0 -0.03390452,1.059845 0.4375,1.53125 C 0.90890452,14.002655 2,14 2,14 h 4.793 l -2.796,6 h 2.2 L 9,14 v 6 h 2 v -6 l 2.803,6 h 2.2 L 13.207,14 H 18 c 0,0 1.108751,-0.01473 1.580155,-0.486136 C 20.05156,13.04246 20,12 20,12 V 4 C 20,4 20.065155,2.9557795 19.59375,2.484375 19.122345,2.0129705 18,2 18,2 Z"
     sodipodi:nodetypes="cccccccccccccsccsccccccccccccsccsc" />
  <rect
     style="opacity:1;fill:#fefefe;fill-opacity:1;stroke:none;stroke-width:0.81120408;stroke-linecap:round;stroke-linejoin:round;stroke-miterlimit:10;stroke-dasharray:none;stroke-opacity:1"
     id="rect819"
     width="12.9375"
     height="2"
     x="3.53125"
     y="6.96875"
     ry="0.61871845" />
</svg>
