<svg id="Layer_1" data-name="Layer 1" xmlns="http://www.w3.org/2000/svg" viewBox="0 0 655 334.36"><defs><style>.cls-1{fill:none;}.cls-1,.cls-2{stroke:#000;stroke-miterlimit:10;}.cls-3{font-size:43px;font-family:IM_FELL_English_SC, IM FELL English SC;}</style></defs><title>finalProjectIcon</title><path class="cls-1" d="M1103.34,350.9a224.87,224.87,0,0,0,1.32,318.2" transform="translate(-903 -342.14)"/><path class="cls-1" d="M1356.37,355.9A224.87,224.87,0,0,1,1355,674.1" transform="translate(-903 -342.14)"/><line class="cls-1" x1="593.5" y1="173.36" x2="519" y2="172.36"/><line class="cls-1" x1="135.5" y1="173.36" x2="61" y2="172.36"/><circle class="cls-2" cx="31" cy="171.86" r="30.5"/><circle class="cls-1" cx="624" cy="172.86" r="30.5"/><text class="cls-3" transform="matrix(-0.32, -0.95, 0.95, -0.32, 186.78, 243.29)">c</text><text class="cls-3" transform="translate(175.84 170.83) rotate(-80.5)">r</text><text class="cls-3" transform="matrix(0.61, -0.79, 0.79, 0.61, 200.56, 102.04)">e</text><text class="cls-3" transform="translate(254.07 53.68) rotate(-24.57)">a</text><text class="cls-3" transform="translate(322.12 35.98) rotate(3.26)">t</text><text class="cls-3" transform="translate(394.42 53.59) rotate(30.53)">i</text><text class="cls-3" transform="translate(444.41 96.38) rotate(57.07)">v</text><text class="cls-3" transform="translate(472.08 162.45) rotate(85.03)">e</text><text class="cls-3" transform="matrix(-0.38, 0.93, -0.93, -0.38, 465.47, 234.33)">s</text><circle cx="292" cy="66.86" r="3"/><circle cx="365.5" cy="64.36" r="2.5"/><circle cx="328.5" cy="54.36" r="1.5"/><circle cx="401" cy="80.86" r="2"/><circle cx="418.5" cy="112.36" r="1.5"/><circle cx="443.5" cy="143.36" r="1.5"/><circle cx="441.5" cy="181.36" r="3.5"/><circle cx="397.5" cy="178.36" r="5.5"/><circle cx="323.5" cy="174.36" r="6.5"/><circle cx="349" cy="103.86" r="2"/><circle cx="265" cy="127.86" r="4"/><circle cx="258" cy="75.86" r="2"/><circle cx="231.5" cy="103.36" r="2.5"/><circle cx="209.5" cy="135.36" r="1.5"/><circle cx="212.5" cy="171.36" r="1.5"/><circle cx="203" cy="207.86" r="2"/><circle cx="261" cy="215.86" r="2"/><circle cx="228" cy="240.86" r="4"/><circle cx="250" cy="271.86" r="2"/><circle cx="284.5" cy="280.36" r="2.5"/><circle cx="357" cy="288.86" r="6"/><circle cx="343" cy="245.86" r="4"/><circle cx="393.5" cy="278.36" r="2.5"/><circle cx="413" cy="245.86" r="2"/><circle cx="439" cy="221.86" r="2"/><line class="cls-2" x1="401.5" y1="81.36" x2="418.5" y2="112.36"/><line class="cls-1" x1="401.5" y1="80.36" x2="443.5" y2="143.36"/><line class="cls-1" x1="443.5" y1="143.36" x2="418.5" y2="112.36"/><line class="cls-1" x1="348.5" y1="104.36" x2="418.5" y2="112.36"/><line class="cls-1" x1="348.5" y1="103.36" x2="365.5" y2="64.36"/><line class="cls-1" x1="400.5" y1="80.36" x2="365.5" y2="64.36"/><line class="cls-1" x1="365.5" y1="65.36" x2="418.5" y2="112.36"/><line class="cls-1" x1="397.5" y1="178.36" x2="418.5" y2="112.36"/><line class="cls-1" x1="441.5" y1="181.36" x2="443.5" y2="143.36"/><line class="cls-1" x1="441.5" y1="181.36" x2="397.5" y2="178.36"/><line class="cls-1" x1="442.5" y1="182.36" x2="418.5" y2="112.36"/><line class="cls-1" x1="440.5" y1="181.36" x2="439.5" y2="222.36"/><line class="cls-1" x1="438.5" y1="222.36" x2="412.5" y2="246.36"/><line class="cls-1" x1="397.5" y1="179.36" x2="412.5" y2="246.36"/><line class="cls-1" x1="412.5" y1="245.36" x2="441.5" y2="181.36"/><line class="cls-1" x1="438.5" y1="222.36" x2="393.5" y2="278.36"/><line class="cls-1" x1="356.5" y1="289.36" x2="393.5" y2="278.36"/><line class="cls-1" x1="356.5" y1="288.36" x2="412.5" y2="246.36"/><line class="cls-1" x1="342.5" y1="245.36" x2="412.5" y2="245.36"/><line class="cls-1" x1="342.5" y1="246.36" x2="356.5" y2="289.36"/><line class="cls-1" x1="397.5" y1="178.36" x2="343.5" y2="245.36"/><line class="cls-1" x1="342.5" y1="244.36" x2="323.5" y2="174.36"/><line class="cls-1" x1="324.5" y1="174.36" x2="397.5" y2="178.36"/><line class="cls-1" x1="260.5" y1="215.36" x2="324.5" y2="174.36"/><line class="cls-1" x1="261.5" y1="216.36" x2="343.5" y2="245.36"/><line class="cls-1" x1="284.5" y1="280.36" x2="260.5" y2="215.36"/><line class="cls-1" x1="228.5" y1="240.36" x2="260.5" y2="215.36"/><line class="cls-1" x1="228.5" y1="241.36" x2="284.5" y2="280.36"/><line class="cls-1" x1="227.5" y1="241.36" x2="250.5" y2="272.36"/><line class="cls-1" x1="357.5" y1="289.36" x2="284.5" y2="281.36"/><line class="cls-1" x1="284.5" y1="280.36" x2="250.5" y2="272.36"/><line class="cls-1" x1="342.5" y1="245.36" x2="284.5" y2="280.36"/><line class="cls-1" x1="265.5" y1="128.36" x2="323.5" y2="174.36"/><line class="cls-1" x1="265.5" y1="127.36" x2="261.5" y2="215.36"/><line class="cls-1" x1="212.5" y1="171.36" x2="261.5" y2="215.36"/><line class="cls-1" x1="228.5" y1="240.36" x2="212.5" y2="171.36"/><line class="cls-1" x1="228.5" y1="242.36" x2="203.5" y2="208.36"/><line class="cls-1" x1="209.5" y1="135.36" x2="202.5" y2="208.36"/><line class="cls-1" x1="264.5" y1="128.36" x2="213.5" y2="171.36"/><line class="cls-1" x1="231.5" y1="103.36" x2="209.5" y2="135.36"/><line class="cls-1" x1="264.5" y1="127.36" x2="231.5" y2="103.36"/><line class="cls-1" x1="258.5" y1="75.36" x2="231.5" y2="103.36"/><line class="cls-1" x1="292.5" y1="66.36" x2="231.5" y2="103.36"/><line class="cls-1" x1="257.5" y1="76.36" x2="291.5" y2="67.36"/><line class="cls-1" x1="265.5" y1="128.36" x2="292.5" y2="66.36"/><line class="cls-1" x1="348.5" y1="103.36" x2="292.5" y2="66.36"/><line class="cls-1" x1="265.5" y1="128.36" x2="349.5" y2="103.36"/><line class="cls-1" x1="324.5" y1="172.36" x2="349.5" y2="103.36"/><line class="cls-1" x1="397.5" y1="178.36" x2="348.5" y2="103.36"/><line class="cls-1" x1="365.5" y1="64.36" x2="292.5" y2="66.36"/><line class="cls-1" x1="328.5" y1="54.36" x2="292.5" y2="66.36"/><line class="cls-1" x1="365.5" y1="64.36" x2="328.5" y2="54.36"/><circle class="cls-1" cx="320.5" cy="299.36" r="1"/><line class="cls-1" x1="356.5" y1="289.36" x2="320.5" y2="299.36"/><line class="cls-1" x1="284.5" y1="280.36" x2="320.5" y2="299.36"/><line class="cls-1" x1="250.5" y1="272.36" x2="320.5" y2="299.36"/><line class="cls-1" x1="209.5" y1="135.36" x2="212.5" y2="171.36"/><line class="cls-1" x1="203.5" y1="207.36" x2="212.5" y2="171.36"/><line class="cls-1" x1="231.5" y1="103.36" x2="212.5" y2="171.36"/></svg>