<?xml version="1.0" encoding="UTF-8" standalone="no"?>
<!-- Generator: Adobe Illustrator 16.0.0, SVG Export Plug-In . SVG Version: 6.00 Build 0)  -->

<svg
   xmlns:dc="http://purl.org/dc/elements/1.1/"
   xmlns:cc="http://creativecommons.org/ns#"
   xmlns:rdf="http://www.w3.org/1999/02/22-rdf-syntax-ns#"
   xmlns:svg="http://www.w3.org/2000/svg"
   xmlns="http://www.w3.org/2000/svg"
   xmlns:sodipodi="http://sodipodi.sourceforge.net/DTD/sodipodi-0.dtd"
   xmlns:inkscape="http://www.inkscape.org/namespaces/inkscape"
   version="1.1"
   id="Capa_1"
   x="0px"
   y="0px"
   width="481.552px"
   height="481.553px"
   viewBox="0 0 481.552 481.553"
   style="enable-background:new 0 0 481.552 481.553;"
   xml:space="preserve"
   sodipodi:docname="artist-icon-bright.svg"
   inkscape:version="0.92.3 (2405546, 2018-03-11)"><metadata
   id="metadata54"><rdf:RDF><cc:Work
       rdf:about=""><dc:format>image/svg+xml</dc:format><dc:type
         rdf:resource="http://purl.org/dc/dcmitype/StillImage" /><dc:title></dc:title></cc:Work></rdf:RDF></metadata><defs
   id="defs52" /><sodipodi:namedview
   pagecolor="#ffffff"
   bordercolor="#666666"
   borderopacity="1"
   objecttolerance="10"
   gridtolerance="10"
   guidetolerance="10"
   inkscape:pageopacity="0"
   inkscape:pageshadow="2"
   inkscape:window-width="1319"
   inkscape:window-height="713"
   id="namedview50"
   showgrid="false"
   inkscape:zoom="0.49008104"
   inkscape:cx="-139.7733"
   inkscape:cy="240.7765"
   inkscape:window-x="47"
   inkscape:window-y="27"
   inkscape:window-maximized="1"
   inkscape:current-layer="Capa_1" />
<g
   id="g17"
   style="fill:#fefefe;fill-opacity:1">
	<g
   id="Layer_2_27_"
   style="fill:#fefefe;fill-opacity:1">
		<g
   id="g14"
   style="fill:#fefefe;fill-opacity:1">
			<path
   d="m 214.761,232.322 c 0,-11.308 -9.18,-20.485 -20.468,-20.485 -11.325,0 -20.504,9.178 -20.504,20.485 0,11.295 9.179,20.486 20.504,20.486 11.288,0.002 20.468,-9.163 20.468,-20.486 z m -26.77,2.527 c 0,-5.789 4.698,-10.498 10.5,-10.498 5.8,0 10.483,4.709 10.483,10.498 0,5.817 -4.683,10.528 -10.483,10.528 -5.803,0 -10.5,-4.711 -10.5,-10.528 z"
   id="path2"
   inkscape:connector-curvature="0"
   style="fill:#fefefe;fill-opacity:1" />
			<path
   d="m 287.26,211.838 c -11.287,0 -20.468,9.178 -20.468,20.485 0,11.322 9.181,20.486 20.468,20.486 11.326,0 20.505,-9.191 20.505,-20.486 0,-11.308 -9.179,-20.485 -20.505,-20.485 z m -4.198,33.539 c -5.801,0 -10.482,-4.711 -10.482,-10.528 0,-5.789 4.683,-10.498 10.482,-10.498 5.804,0 10.5,4.709 10.5,10.498 0,5.817 -4.696,10.528 -10.5,10.528 z"
   id="path4"
   inkscape:connector-curvature="0"
   style="fill:#fefefe;fill-opacity:1" />
			<path
   d="m 273.152,33.708 c 10.686,-7.529 23.559,-11.432 36.967,-13.344 13.153,-1.87 9.238,-22.115 -3.902,-20.242 C 283,3.425 261.557,12.683 246.447,30.675 150.006,23.482 68.89,57.934 64.942,107.964 c -1.886,23.874 15.439,31.032 44.52,32.789 l -1.541,20.79 -1.531,20.646 c -15.904,6.844 -25.554,24.256 -25.554,46.898 0,13.604 3.223,24.576 9.58,32.614 6.397,8.088 15.647,12.669 26.88,13.353 11.448,20.188 28.23,38.54 47.744,52.103 23.371,16.246 49.248,24.834 74.832,24.834 0.313,0 0.627,-0.014 0.94,-0.02 0.314,0.006 0.627,0.02 0.94,0.02 25.585,0 51.462,-8.588 74.833,-24.834 19.514,-13.562 36.296,-31.914 47.744,-52.103 11.232,-0.684 20.483,-5.264 26.88,-13.353 6.357,-8.038 9.58,-19.011 9.58,-32.614 0,-22.643 -9.649,-40.055 -25.555,-46.898 l -1.474,-19.883 c 25.303,1.438 41.104,-4.536 42.839,-26.615 3.624,-45.844 -58.81,-88.919 -143.447,-101.983 z m 109.317,195.378 c 0,18.402 -7.104,27.734 -21.122,27.734 -0.313,0 -0.787,-0.037 -1.285,-0.077 l -6.523,-0.491 -2.779,5.393 c -17.883,34.688 -59.622,72.023 -109.005,72.023 -0.264,0 -0.522,-0.012 -0.784,-0.02 v -0.007 c -0.052,0 -0.104,0.002 -0.156,0.004 -0.052,-10e-4 -0.104,-0.003 -0.156,-0.004 v 0.007 c -0.261,0.008 -0.521,0.02 -0.784,0.02 -49.382,0 -91.121,-37.334 -109.004,-72.023 l -2.78,-5.393 -6.522,0.491 c -0.5,0.04 -0.972,0.077 -1.287,0.077 -14.016,0 -21.122,-9.332 -21.122,-27.734 0,-6.063 1.185,-25.774 16.028,-30.652 0.924,6.349 4.513,26.729 12.669,28.018 9.668,1.527 0.65,-28.485 11.346,-37.369 4.727,0.19 69.113,-9.566 96.565,-14.374 9.69,-1.697 16.023,-0.697 24.654,1.124 34.246,7.225 76.722,13.464 82.006,13.25 10.696,8.884 1.68,38.896 11.348,37.369 8.155,-1.288 11.743,-21.669 12.669,-28.018 14.839,4.878 16.024,24.588 16.024,30.652 z"
   id="path6"
   inkscape:connector-curvature="0"
   style="fill:#fefefe;fill-opacity:1" />
			<path
   d="m 233.883,249.802 c -0.193,0 -0.396,0.006 -0.604,0.021 -16.979,1.204 -18.111,12.64 -18.936,20.99 l -0.015,0.168 c -0.055,0.533 -0.102,1.071 -0.152,1.611 -0.422,4.717 -0.859,9.598 -4.477,13.514 -1.583,1.715 -4.912,2.912 -8.097,2.912 -1.154,0 -2.229,-0.151 -3.188,-0.453 -3.088,-0.967 -4.5,-3.865 -3.453,-5.47 l 0.02,-0.03 0.014,-0.028 c 0.896,-1.601 2.781,-2.762 4.482,-2.762 0.324,0 0.655,0.041 0.977,0.123 0.017,0.005 0.029,0.008 0.042,0.013 -1.898,0.179 -3.399,1.176 -3.827,2.594 -0.523,1.742 0.804,3.418 3.228,4.075 1.049,0.285 2.099,0.43 3.117,0.43 5.122,0 8.185,-3.521 8.185,-6.923 0,-3.387 -3.037,-6.802 -9.825,-6.804 -0.622,0 -1.272,0.029 -1.935,0.087 -7.651,0.677 -12.952,4.543 -13.501,9.853 -0.474,4.59 3.056,10.264 11.926,11.875 1.612,0.293 3.213,0.44 4.753,0.44 5.629,0 10.676,-1.95 14.6,-5.641 3.013,-2.836 5.255,-6.634 6.147,-10.42 0.361,-1.525 0.441,-3.548 0.537,-5.89 0.291,-7.117 0.688,-16.866 9.754,-17.51 3.3,-0.233 4.934,-2.14 4.797,-3.814 -0.142,-1.744 -2.02,-2.961 -4.569,-2.961 z"
   id="path8"
   inkscape:connector-curvature="0"
   style="fill:#fefefe;fill-opacity:1" />
			<path
   d="m 282.114,273.869 c -0.662,-0.059 -1.313,-0.087 -1.938,-0.087 -6.786,0.001 -9.823,3.417 -9.823,6.804 0,3.401 3.062,6.923 8.186,6.923 1.019,0 2.067,-0.146 3.117,-0.43 2.423,-0.656 3.75,-2.333 3.228,-4.075 -0.428,-1.417 -1.929,-2.415 -3.826,-2.594 0.014,-0.005 0.024,-0.008 0.042,-0.013 0.321,-0.082 0.65,-0.123 0.978,-0.123 1.699,0 3.587,1.162 4.48,2.762 l 0.016,0.028 0.02,0.03 c 1.048,1.604 -0.364,4.503 -3.453,5.47 -0.957,0.302 -2.033,0.453 -3.187,0.453 -3.186,0 -6.514,-1.196 -8.098,-2.912 -3.616,-3.916 -4.054,-8.797 -4.478,-13.514 -0.05,-0.54 -0.096,-1.078 -0.151,-1.611 l -0.015,-0.168 c -0.826,-8.351 -1.958,-19.786 -18.936,-20.99 -0.211,-0.016 -0.412,-0.021 -0.605,-0.021 -2.55,0 -4.428,1.216 -4.569,2.96 -0.139,1.675 1.495,3.581 4.795,3.814 9.067,0.644 9.464,10.393 9.753,17.51 0.097,2.342 0.178,4.364 0.54,5.89 0.892,3.786 3.135,7.584 6.146,10.42 3.924,3.69 8.972,5.641 14.601,5.641 1.539,0 3.142,-0.147 4.753,-0.44 8.87,-1.611 12.399,-7.285 11.928,-11.875 -0.554,-5.309 -5.854,-9.175 -13.504,-9.852 z"
   id="path10"
   inkscape:connector-curvature="0"
   style="fill:#fefefe;fill-opacity:1" />
			<path
   d="m 328.306,360.944 c -6.803,0 -27.205,0.052 -31.708,0.065 -0.084,-0.003 -0.167,-0.014 -0.252,-0.014 -0.094,0 -0.186,0.012 -0.279,0.015 -0.231,0.001 -0.368,0.001 -0.368,0.001 l -0.033,0.02 c -3.302,0.221 -6.164,2.015 -7.854,4.646 l -0.019,0.011 c 0,0 -0.11,0.192 -0.313,0.536 -0.018,0.031 -0.036,0.062 -0.053,0.094 -3.713,6.325 -34.698,58.522 -46.65,58.869 -11.952,-0.347 -42.937,-52.544 -46.648,-58.869 -0.019,-0.032 -0.038,-0.062 -0.056,-0.094 -0.202,-0.344 -0.313,-0.536 -0.313,-0.536 l -0.019,-0.011 c -1.686,-2.631 -4.551,-4.425 -7.852,-4.646 l -0.033,-0.02 c 0,0 -0.136,0 -0.369,-0.001 -0.093,-0.002 -0.185,-0.015 -0.279,-0.015 -0.085,0 -0.167,0.011 -0.252,0.014 -4.504,-0.014 -24.905,-0.065 -31.708,-0.065 -30.705,0 -71.821,27.96 -71.821,63.594 0,35.634 0,57.015 0,57.015 h 159.215 0.136 0.136 159.216 c 0,0 0,-21.381 0,-57.015 -0.002,-35.634 -41.119,-63.594 -71.824,-63.594 z"
   id="path12"
   inkscape:connector-curvature="0"
   style="fill:#fefefe;fill-opacity:1" />
		</g>
	</g>
</g>
<g
   id="g19">
</g>
<g
   id="g21">
</g>
<g
   id="g23">
</g>
<g
   id="g25">
</g>
<g
   id="g27">
</g>
<g
   id="g29">
</g>
<g
   id="g31">
</g>
<g
   id="g33">
</g>
<g
   id="g35">
</g>
<g
   id="g37">
</g>
<g
   id="g39">
</g>
<g
   id="g41">
</g>
<g
   id="g43">
</g>
<g
   id="g45">
</g>
<g
   id="g47">
</g>
</svg>